0
SECTION
2
HEADER
9
$INSUNITS
70
4
9
$ACADVER
1
AC1014
9
$HANDSEED
5
FFFF
0
ENDSEC
0
SECTION
2
TABLES
0
TABLE
2
VPORT
5
8
100
AcDbSymbolTable
0
ENDTAB
0
TABLE
2
LTYPE
5
5
100
AcDbSymbolTable
0
LTYPE
5
14
100
AcDbSymbolTableRecord
100
AcDbLinetypeTableRecord
2
BYBLOCK
70
0
0
LTYPE
5
15
100
AcDbSymbolTableRecord
100
AcDbLinetypeTableRecord
2
BYLAYER
70
0
0
LTYPE
5
16
100
AcDbSymbolTableRecord
100
AcDbLinetypeTableRecord
2
DASHED
70
0
3
Dashed __ __ __ __ __ __ __ __ __ __ __ __ __ _
72
65
73
2
40
0.75
49
0.5
74
0
49
-0.25
74
0
0
ENDTAB
0
TABLE
2
LAYER
5
2
100
AcDbSymbolTable
70
2
0
LAYER
5
50
100
AcDbSymbolTableRecord
100
AcDbLayerTableRecord
2
0
70
0
62
7
6
CONTINUOUS
0
ENDTAB
0
TABLE
2
STYLE
5
3
100
AcDbSymbolTable
70
1
0
STYLE
5
11
100
AcDbSymbolTableRecord
100
AcDbTextStyleTableRecord
2
STANDARD
70
0
0
ENDTAB
0
TABLE
2
VIEW
5
6
100
AcDbSymbolTable
70
0
0
ENDTAB
0
TABLE
2
UCS
5
7
100
AcDbSymbolTable
70
0
0
ENDTAB
0
TABLE
2
APPID
5
9
100
AcDbSymbolTable
70
2
0
APPID
5
12
100
AcDbSymbolTableRecord
100
AcDbRegAppTableRecord
2
ACAD
70
0
0
ENDTAB
0
TABLE
2
DIMSTYLE
5
A
100
AcDbSymbolTable
70
1
0
ENDTAB
0
TABLE
2
BLOCK_RECORD
5
1
100
AcDbSymbolTable
70
1
0
BLOCK_RECORD
5
1F
100
AcDbSymbolTableRecord
100
AcDbBlockTableRecord
2
*MODEL_SPACE
0
BLOCK_RECORD
5
1B
100
AcDbSymbolTableRecord
100
AcDbBlockTableRecord
2
*PAPER_SPACE
0
ENDTAB
0
ENDSEC
0
SECTION
2
BLOCKS
0
BLOCK
5
20
100
AcDbEntity
100
AcDbBlockBegin
2
*MODEL_SPACE
0
ENDBLK
5
21
100
AcDbEntity
100
AcDbBlockEnd
0
BLOCK
5
1C
100
AcDbEntity
100
AcDbBlockBegin
2
*PAPER_SPACE
0
ENDBLK
5
1D
100
AcDbEntity
100
AcDbBlockEnd
0
ENDSEC
0
SECTION
2
ENTITIES
0
LWPOLYLINE
5
100
100
AcDbEntity
8
0
100
AcDbPolyline
90
4
70
1
43
0.0
10
-1.5000000000000002
20
-1.9999999999999996
10
-1.5000000000000002
20
1.9999999999999996
42
-0.33333333333333315
10
1.4999999999999987
20
2.0000000000000013
10
1.5000000000000004
20
-2
42
-0.33333333333333337
0
ARC
5
101
100
AcDbEntity
8
0
100
AcDbCircle
10
1.3877787807814457e-16
20
2.7755575615628914e-16
30
0
40
8.5492000000000008
210
0
220
0
230
1
100
AcDbArc
50
157.94525585596617
51
169.32747141676106
0
ARC
5
102
100
AcDbEntity
8
0
100
AcDbCircle
10
-8.6469888386668892
20
1.629571926602289
30
0
40
0.25000000000000011
210
0
220
0
230
1
100
AcDbArc
50
261.01367177190446
51
349.32747141676271
0
LINE
5
103
100
AcDbEntity
8
0
100
AcDbLine
10
-8.6860385338996835
20
1.3826405164855806
30
0
11
-10.208346223140349
21
1.6233780204235781
31
0
0
SPLINE
5
104
100
AcDbEntity
8
0
100
AcDbSpline
70
4
71
5
72
81
73
75
74
0
42
0.000000001
43
0.0000000001
44
0.0000000001
40
0
40
0
40
0
40
0
40
0
40
0
40
0.014285714285714285
40
0.028571428571428571
40
0.042857142857142858
40
0.057142857142857141
40
0.071428571428571425
40
0.085714285714285715
40
0.10000000000000001
40
0.1142857142857143
40
0.12857142857142859
40
0.14285714285714288
40
0.15714285714285717
40
0.17142857142857146
40
0.18571428571428575
40
0.20000000000000004
40
0.21428571428571433
40
0.22857142857142862
40
0.24285714285714291
40
0.25714285714285717
40
0.27142857142857146
40
0.28571428571428575
40
0.30000000000000004
40
0.31428571428571433
40
0.32857142857142863
40
0.34285714285714292
40
0.35714285714285721
40
0.3714285714285715
40
0.38571428571428579
40
0.40000000000000008
40
0.41428571428571437
40
0.42857142857142866
40
0.44285714285714295
40
0.45714285714285724
40
0.47142857142857153
40
0.48571428571428582
40
0.50000000000000011
40
0.51428571428571435
40
0.52857142857142858
40
0.54285714285714282
40
0.55714285714285705
40
0.57142857142857129
40
0.58571428571428552
40
0.59999999999999976
40
0.61428571428571399
40
0.62857142857142823
40
0.64285714285714246
40
0.6571428571428567
40
0.67142857142857093
40
0.68571428571428517
40
0.6999999999999994
40
0.71428571428571364
40
0.72857142857142787
40
0.74285714285714211
40
0.75714285714285634
40
0.77142857142857058
40
0.78571428571428481
40
0.79999999999999905
40
0.81428571428571328
40
0.82857142857142752
40
0.84285714285714175
40
0.85714285714285599
40
0.87142857142857022
40
0.88571428571428445
40
0.89999999999999869
40
0.91428571428571292
40
0.92857142857142716
40
0.94285714285714139
40
0.95714285714285563
40
0.97142857142856986
40
0.9857142857142841
40
1
40
1
40
1
40
1
40
1
40
1
41
1
41
1
41
1
41
1
41
1
41
1
41
1
41
1
41
1
41
1
41
1
41
1
41
1
41
1
41
1
41
1
41
1
41
1
41
1
41
1
41
1
41
1
41
1
41
1
41
1
41
1
41
1
41
1
41
1
41
1
41
1
41
1
41
1
41
1
41
1
41
1
41
1
41
1
41
1
41
1
41
1
41
1
41
1
41
1
41
1
41
1
41
1
41
1
41
1
41
1
41
1
41
1
41
1
41
1
41
1
41
1
41
1
41
1
41
1
41
1
41
1
41
1
41
1
41
1
41
1
41
1
41
1
41
1
41
1
41
1
41
1
41
1
41
1
41
1
41
1
10
-10.208346223140349
20
1.6233780204235781
30
0
10
-10.21616779026348
20
1.6246149218459478
30
0
10
-10.231834113862275
20
1.6268312868852615
30
0
10
-10.255403166499249
20
1.6293835327167363
30
0
10
-10.28696184903443
20
1.6313182486668207
30
0
10
-10.326597971807123
20
1.6317315747098244
30
0
10
-10.366377508308631
20
1.6307002154564971
30
0
10
-10.406255457784352
20
1.6287753734003665
30
0
10
-10.446196358651923
20
1.6263595843777536
30
0
10
-10.486182113951891
20
1.6236009880909805
30
0
10
-10.52620625894637
20
1.6204813590705993
30
0
10
-10.566269717888808
20
1.6168830792293265
30
0
10
-10.606376230337748
20
1.6126602874069329
30
0
10
-10.646527372323975
20
1.6077171609797334
30
0
10
-10.686719518505148
20
1.6020543964726159
30
0
10
-10.726946150727541
20
1.5957288618915488
30
0
10
-10.767199196879902
20
1.5888289007496921
30
0
10
-10.807470637757993
20
1.5814455142074606
30
0
10
-10.847754272636445
20
1.5736404411092768
30
0
10
-10.888046459114536
20
1.5654326422385432
30
0
10
-10.928345099841316
20
1.5568159870363556
30
0
10
-10.968649021419957
20
1.547769968496155
30
0
10
-11.008957252519004
20
1.5382722266507163
30
0
10
-11.049268209077876
20
1.5283126915373813
30
0
10
-11.08957944062041
20
1.5178978846868505
30
0
10
-11.129888041134615
20
1.5070435550135679
30
0
10
-11.170190893558855
20
1.4957702381854119
30
0
10
-11.210484957383823
20
1.4840980681622973
30
0
10
-11.250767597807357
20
1.4720408482191147
30
0
10
-11.291036650498114
20
1.4596048243799717
30
0
10
-11.331290241907428
20
1.4467918040500733
30
0
10
-11.371526674702375
20
1.4336011213072459
30
0
10
-11.411744297582505
20
1.4200318859417391
30
0
10
-11.451941355485125
20
1.4060855788369677
30
0
10
-11.492115963309891
20
1.3917664823593976
30
0
10
-11.532266177555337
20
1.3770803934756257
30
0
10
-11.572390041360848
20
1.3620338104626808
30
0
10
-11.612485635982919
20
1.3466330073269772
30
0
10
-11.652551141306438
20
1.3308829634905086
30
0
10
-11.692584841811748
20
1.3147872193443435
30
0
10
-11.7325850915348
20
1.2983484319853655
30
0
10
-11.772550290468779
20
1.2815687399934994
30
0
10
-11.81247885883778
20
1.2644501739375569
30
0
10
-11.852369206948449
20
1.2469951354252711
30
0
10
-11.892219731484845
20
1.2292064782207308
30
0
10
-11.932028832535986
20
1.2110872728994517
30
0
10
-11.971794925616226
20
1.192640660407704
30
0
10
-12.011516454314076
20
1.1738696856984774
30
0
10
-12.05119190733109
20
1.1547771075439042
30
0
10
-12.090819816455493
20
1.1353653629382925
30
0
10
-12.130398737762045
20
1.1156366756651779
30
0
10
-12.16992723687394
20
1.0955931292610293
30
0
10
-12.209403875144108
20
1.0752367493620794
30
0
10
-12.24882719043257
20
1.054569602164364
30
0
10
-12.28819570085092
20
1.033593820326892
30
0
10
-12.327507933828088
20
1.012311542588086
30
0
10
-12.366762450790688
20
0.99072487638005813
30
0
10
-12.405957869971376
20
0.968835857228037
30
0
10
-12.445092900405823
20
0.946646402213984
30
0
10
-12.484166337380465
20
0.92415830108629626
30
0
10
-12.523176996427969
20
0.90137326947009822
30
0
10
-12.562123659053787
20
0.87829299144972217
30
0
10
-12.601005020543127
20
0.85491916407299196
30
0
10
-12.639819622072162
20
0.83125355389313582
30
0
10
-12.678565838352737
20
0.80729801648068222
30
0
10
-12.717242015068773
20
0.78305441126146369
30
0
10
-12.755846580738918
20
0.75852453721642898
30
0
10
-12.794378165023039
20
0.73371006345725076
30
0
10
-12.832835725071931
20
0.70861246136687028
30
0
10
-12.871218639689692
20
0.68323294562562242
30
0
10
-12.909526593635846
20
0.65757247141999875
30
0
10
-12.940112908436914
20
0.63681987535762319
30
0
10
-12.963018874646206
20
0.62112949345643176
30
0
10
-12.978274514957365
20
0.61061328639478329
30
0
10
-12.985898584154274
20
0.60534119474897041
30
0
0
ARC
5
105
100
AcDbEntity
8
0
100
AcDbCircle
10
1.3877787807814457e-16
20
2.7755575615628914e-16
30
0
40
13.000000000000004
210
0
220
0
230
1
100
AcDbArc
50
177.3310737119144
51
182.6689262880856
0
SPLINE
5
106
100
AcDbEntity
8
0
100
AcDbSpline
70
4
71
5
72
81
73
75
74
0
42
0.000000001
43
0.0000000001
44
0.0000000001
40
-1
40
-1
40
-1
40
-1
40
-1
40
-1
40
-0.9857142857142841
40
-0.97142857142856986
40
-0.95714285714285563
40
-0.94285714285714139
40
-0.92857142857142716
40
-0.91428571428571292
40
-0.89999999999999869
40
-0.88571428571428445
40
-0.87142857142857022
40
-0.85714285714285599
40
-0.84285714285714175
40
-0.82857142857142752
40
-0.81428571428571328
40
-0.79999999999999905
40
-0.78571428571428481
40
-0.77142857142857058
40
-0.75714285714285634
40
-0.74285714285714211
40
-0.72857142857142787
40
-0.71428571428571364
40
-0.6999999999999994
40
-0.68571428571428517
40
-0.67142857142857093
40
-0.6571428571428567
40
-0.64285714285714246
40
-0.62857142857142823
40
-0.61428571428571399
40
-0.59999999999999976
40
-0.58571428571428552
40
-0.57142857142857129
40
-0.55714285714285705
40
-0.54285714285714282
40
-0.52857142857142858
40
-0.51428571428571435
40
-0.50000000000000011
40
-0.48571428571428582
40
-0.47142857142857153
40
-0.45714285714285724
40
-0.44285714285714295
40
-0.42857142857142866
40
-0.41428571428571437
40
-0.40000000000000008
40
-0.38571428571428579
40
-0.3714285714285715
40
-0.35714285714285721
40
-0.34285714285714292
40
-0.32857142857142863
40
-0.31428571428571433
40
-0.30000000000000004
40
-0.28571428571428575
40
-0.27142857142857146
40
-0.25714285714285717
40
-0.24285714285714291
40
-0.22857142857142862
40
-0.21428571428571433
40
-0.20000000000000004
40
-0.18571428571428575
40
-0.17142857142857146
40
-0.15714285714285717
40
-0.14285714285714288
40
-0.12857142857142859
40
-0.1142857142857143
40
-0.10000000000000001
40
-0.085714285714285715
40
-0.071428571428571425
40
-0.057142857142857141
40
-0.042857142857142858
40
-0.028571428571428571
40
-0.014285714285714285
40
0
40
0
40
0
40
0
40
0
40
0
41
1
41
1
41
1
41
1
41
1
41
1
41
1
41
1
41
1
41
1
41
1
41
1
41
1
41
1
41
1
41
1
41
1
41
1
41
1
41
1
41
1
41
1
41
1
41
1
41
1
41
1
41
1
41
1
41
1
41
1
41
1
41
1
41
1
41
1
41
1
41
1
41
1
41
1
41
1
41
1
41
1
41
1
41
1
41
1
41
1
41
1
41
1
41
1
41
1
41
1
41
1
41
1
41
1
41
1
41
1
41
1
41
1
41
1
41
1
41
1
41
1
41
1
41
1
41
1
41
1
41
1
41
1
41
1
41
1
41
1
41
1
41
1
41
1
41
1
41
1
10
-12.985898584154274
20
-0.60534119474897041
30
0
10
-12.978274514957365
20
-0.61061328639478329
30
0
10
-12.963018874646206
20
-0.62112949345643176
30
0
10
-12.940112908436914
20
-0.63681987535762319
30
0
10
-12.909526593635846
20
-0.65757247141999875
30
0
10
-12.871218639689692
20
-0.68323294562562242
30
0
10
-12.832835725071931
20
-0.70861246136687028
30
0
10
-12.794378165023039
20
-0.73371006345725076
30
0
10
-12.755846580738918
20
-0.75852453721642898
30
0
10
-12.717242015068773
20
-0.78305441126146369
30
0
10
-12.678565838352737
20
-0.80729801648068222
30
0
10
-12.639819622072162
20
-0.83125355389313582
30
0
10
-12.601005020543127
20
-0.85491916407299196
30
0
10
-12.562123659053787
20
-0.87829299144972217
30
0
10
-12.523176996427969
20
-0.90137326947009822
30
0
10
-12.484166337380465
20
-0.92415830108629626
30
0
10
-12.445092900405823
20
-0.946646402213984
30
0
10
-12.405957869971376
20
-0.968835857228037
30
0
10
-12.366762450790688
20
-0.99072487638005813
30
0
10
-12.327507933828088
20
-1.012311542588086
30
0
10
-12.28819570085092
20
-1.033593820326892
30
0
10
-12.24882719043257
20
-1.054569602164364
30
0
10
-12.209403875144108
20
-1.0752367493620794
30
0
10
-12.16992723687394
20
-1.0955931292610293
30
0
10
-12.130398737762045
20
-1.1156366756651779
30
0
10
-12.090819816455493
20
-1.1353653629382925
30
0
10
-12.05119190733109
20
-1.1547771075439042
30
0
10
-12.011516454314076
20
-1.1738696856984774
30
0
10
-11.971794925616226
20
-1.192640660407704
30
0
10
-11.932028832535986
20
-1.2110872728994517
30
0
10
-11.892219731484845
20
-1.2292064782207308
30
0
10
-11.852369206948449
20
-1.2469951354252711
30
0
10
-11.81247885883778
20
-1.2644501739375569
30
0
10
-11.772550290468779
20
-1.2815687399934994
30
0
10
-11.7325850915348
20
-1.2983484319853655
30
0
10
-11.692584841811748
20
-1.3147872193443435
30
0
10
-11.652551141306438
20
-1.3308829634905086
30
0
10
-11.612485635982919
20
-1.3466330073269772
30
0
10
-11.572390041360848
20
-1.3620338104626808
30
0
10
-11.532266177555337
20
-1.3770803934756257
30
0
10
-11.492115963309891
20
-1.3917664823593976
30
0
10
-11.451941355485125
20
-1.4060855788369677
30
0
10
-11.411744297582505
20
-1.4200318859417391
30
0
10
-11.371526674702375
20
-1.4336011213072459
30
0
10
-11.331290241907428
20
-1.4467918040500733
30
0
10
-11.291036650498114
20
-1.4596048243799717
30
0
10
-11.250767597807357
20
-1.4720408482191147
30
0
10
-11.210484957383823
20
-1.4840980681622973
30
0
10
-11.170190893558855
20
-1.4957702381854119
30
0
10
-11.129888041134615
20
-1.5070435550135679
30
0
10
-11.08957944062041
20
-1.5178978846868505
30
0
10
-11.049268209077876
20
-1.5283126915373813
30
0
10
-11.008957252519004
20
-1.5382722266507163
30
0
10
-10.968649021419957
20
-1.547769968496155
30
0
10
-10.928345099841316
20
-1.5568159870363556
30
0
10
-10.888046459114536
20
-1.5654326422385432
30
0
10
-10.847754272636445
20
-1.5736404411092768
30
0
10
-10.807470637757993
20
-1.5814455142074606
30
0
10
-10.767199196879902
20
-1.5888289007496921
30
0
10
-10.726946150727541
20
-1.5957288618915488
30
0
10
-10.686719518505148
20
-1.6020543964726159
30
0
10
-10.646527372323975
20
-1.6077171609797334
30
0
10
-10.606376230337748
20
-1.6126602874069329
30
0
10
-10.566269717888808
20
-1.6168830792293265
30
0
10
-10.52620625894637
20
-1.6204813590705993
30
0
10
-10.486182113951891
20
-1.6236009880909805
30
0
10
-10.446196358651923
20
-1.6263595843777536
30
0
10
-10.406255457784352
20
-1.6287753734003665
30
0
10
-10.366377508308631
20
-1.6307002154564971
30
0
10
-10.326597971807123
20
-1.6317315747098244
30
0
10
-10.28696184903443
20
-1.6313182486668207
30
0
10
-10.255403166499249
20
-1.6293835327167363
30
0
10
-10.231834113862275
20
-1.6268312868852615
30
0
10
-10.21616779026348
20
-1.6246149218459478
30
0
10
-10.208346223140349
20
-1.6233780204235781
30
0
0
LINE
5
107
100
AcDbEntity
8
0
100
AcDbLine
10
-10.208346223140353
20
-1.6233780204235781
30
0
11
-8.6860385338996835
21
-1.3826405164855806
31
0
0
ARC
5
108
100
AcDbEntity
8
0
100
AcDbCircle
10
-8.6469888386668892
20
-1.629571926602289
30
0
40
0.24999999999999994
210
0
220
-0
230
1
100
AcDbArc
50
10.672528583238982
51
98.986328228095516
0
ARC
5
109
100
AcDbEntity
8
0
100
AcDbCircle
10
1.3877787807814457e-16
20
2.7755575615628914e-16
30
0
40
8.5492000000000026
210
0
220
0
230
1
100
AcDbArc
50
190.67252858323883
51
202.05474414403386
0
ARC
5
110
100
AcDbEntity
8
0
100
AcDbCircle
10
-8.1553230073812681
20
-3.3040319740096056
30
0
40
0.24999999999999978
210
-0
220
0
230
1
100
AcDbArc
50
-66.259055500822555
51
22.054744144032803
0
LINE
5
111
100
AcDbEntity
8
0
100
AcDbLine
10
-8.0546725020308756
20
-3.5328757542893214
30
0
11
-9.4654717445819188
21
-4.153376152146536
31
0
0
SPLINE
5
112
100
AcDbEntity
8
0
100
AcDbSpline
70
4
71
5
72
81
73
75
74
0
42
0.000000001
43
0.0000000001
44
0.0000000001
40
0
40
0
40
0
40
0
40
0
40
0
40
0.014285714285714285
40
0.028571428571428571
40
0.042857142857142858
40
0.057142857142857141
40
0.071428571428571425
40
0.085714285714285715
40
0.10000000000000001
40
0.1142857142857143
40
0.12857142857142859
40
0.14285714285714288
40
0.15714285714285717
40
0.17142857142857146
40
0.18571428571428575
40
0.20000000000000004
40
0.21428571428571433
40
0.22857142857142862
40
0.24285714285714291
40
0.25714285714285717
40
0.27142857142857146
40
0.28571428571428575
40
0.30000000000000004
40
0.31428571428571433
40
0.32857142857142863
40
0.34285714285714292
40
0.35714285714285721
40
0.3714285714285715
40
0.38571428571428579
40
0.40000000000000008
40
0.41428571428571437
40
0.42857142857142866
40
0.44285714285714295
40
0.45714285714285724
40
0.47142857142857153
40
0.48571428571428582
40
0.50000000000000011
40
0.51428571428571435
40
0.52857142857142858
40
0.54285714285714282
40
0.55714285714285705
40
0.57142857142857129
40
0.58571428571428552
40
0.59999999999999976
40
0.61428571428571399
40
0.62857142857142823
40
0.64285714285714246
40
0.6571428571428567
40
0.67142857142857093
40
0.68571428571428517
40
0.6999999999999994
40
0.71428571428571364
40
0.72857142857142787
40
0.74285714285714211
40
0.75714285714285634
40
0.77142857142857058
40
0.78571428571428481
40
0.79999999999999905
40
0.81428571428571328
40
0.82857142857142752
40
0.84285714285714175
40
0.85714285714285599
40
0.87142857142857022
40
0.88571428571428445
40
0.89999999999999869
40
0.91428571428571292
40
0.92857142857142716
40
0.94285714285714139
40
0.95714285714285563
40
0.97142857142856986
40
0.9857142857142841
40
1
40
1
40
1
40
1
40
1
40
1
41
1
41
1
41
1
41
1
41
1
41
1
41
1
41
1
41
1
41
1
41
1
41
1
41
1
41
1
41
1
41
1
41
1
41
1
41
1
41
1
41
1
41
1
41
1
41
1
41
1
41
1
41
1
41
1
41
1
41
1
41
1
41
1
41
1
41
1
41
1
41
1
41
1
41
1
41
1
41
1
41
1
41
1
41
1
41
1
41
1
41
1
41
1
41
1
41
1
41
1
41
1
41
1
41
1
41
1
41
1
41
1
41
1
41
1
41
1
41
1
41
1
41
1
41
1
41
1
41
1
41
1
41
1
41
1
41
1
41
1
41
1
41
1
41
1
41
1
41
1
10
-9.4654717445819188
20
-4.153376152146536
30
0
10
-9.4727203849526287
20
-4.1565642628984358
30
0
10
-9.4870979924332275
20
-4.1631695919760467
30
0
10
-9.5083053895022402
20
-4.1737648980379731
30
0
10
-9.5359002290892594
20
-4.1891992233335813
30
0
10
-9.5694677183292818
20
-4.2102804171562926
30
0
10
-9.6023747990357542
20
-4.2326544929039516
30
0
10
-9.6348816167315672
20
-4.2558334202868213
30
0
10
-9.6671759665388848
20
-4.2794593926316251
30
0
10
-9.6993227146963967
20
-4.3033980029354835
30
0
10
-9.7313065692878116
20
-4.3276610883377771
30
0
10
-9.7630647187057544
20
-4.3523480951591011
30
0
10
-9.7945214503701603
20
-4.3775837513737894
30
0
10
-9.8256262845008919
20
-4.4034495201691115
30
0
10
-9.8563765478356853
20
-4.4299428555829987
30
0
10
-9.8867975021199221
20
-4.4570123932245673
30
0
10
-9.9169301187706651
20
-4.484579449688443
30
0
10
-9.9468168505457797
20
-4.5125631344177988
30
0
10
-9.976485859602457
20
-4.5409081570264211
30
0
10
-10.005944332731659
20
-4.5695965974577817
30
0
10
-10.035187191099116
20
-4.5986324791526876
30
0
10
-10.064202360655802
20
-4.6280324193166287
30
0
10
-10.092976935554749
20
-4.6578147032096009
30
0
10
-10.121504138966557
20
-4.6879869458154557
30
0
10
-10.149785435225173
20
-4.718542336046017
30
0
10
-10.177826894143735
20
-4.7494660539626707
30
0
10
-10.20563699590339
20
-4.7807391386515166
30
0
10
-10.233224067905493
20
-4.8123430085242065
30
0
10
-10.260593356227234
20
-4.8442646270453791
30
0
10
-10.287746416972807
20
-4.8764975695993247
30
0
10
-10.314682651169804
20
-4.9090393027831452
30
0
10
-10.341400270906199
20
-4.9418894691587623
30
0
10
-10.367897405735924
20
-4.9750479248578454
30
0
10
-10.394173379832312
20
-5.0085124752234664
30
0
10
-10.420228922570145
20
-5.0422784985375113
30
0
10
-10.446065533048706
20
-5.076340067345134
30
0
10
-10.471685078285898
20
-5.1106906569890986
30
0
10
-10.497089336115923
20
-5.1453239520882921
30
0
10
-10.52227946743929
20
-5.1802347796578463
30
0
10
-10.547255943148951
20
-5.2154192338513186
30
0
10
-10.572018815106858
20
-5.2508741895012179
30
0
10
-10.596567893505235
20
-5.2865969824906367
30
0
10
-10.620902947160396
20
-5.3225850505050509
30
0
10
-10.64502393714436
20
-5.3588355137303552
30
0
10
-10.668931057523281
20
-5.3953451046093894
30
0
10
-10.692624622444843
20
-5.4321103750324706
30
0
10
-10.716104997078663
20
-5.4691278260298386
30
0
10
-10.739372518313953
20
-5.506394054564451
30
0
10
-10.762427406270367
20
-5.5439059227398797
30
0
10
-10.785269743348167
20
-5.581660586650842
30
0
10
-10.807899517108288
20
-5.6196553948866557
30
0
10
-10.830316647321037
20
-5.6578878191822586
30
0
10
-10.852521018861111
20
-5.6963553776726874
30
0
10
-10.874512518767999
20
-5.7350555416706692
30
0
10
-10.896291053400356
20
-5.7739857158999275
30
0
10
-10.917856540241855
20
-5.8131433050071717
30
0
10
-10.939208908451374
20
-5.8525257583562063
30
0
10
-10.960348096100276
20
-5.8921306165144163
30
0
10
-10.981274053613019
20
-5.9319555687818166
30
0
10
-11.001986735131094
20
-5.9719984582089189
30
0
10
-11.02248607175415
20
-6.0122572011486399
30
0
10
-11.042771948904061
20
-6.0527297220911969
30
0
10
-11.062844186478237
20
-6.0934138880070412
30
0
10
-11.082702512306748
20
-6.1343074240773205
30
0
10
-11.102346562307366
20
-6.1754078905996579
30
0
10
-11.121775950062343
20
-6.2167128289347051
30
0
10
-11.140990326159976
20
-6.2582198760764198
30
0
10
-11.159989440186685
20
-6.299926887016901
30
0
10
-11.178773210331563
20
-6.3418320601432061
30
0
10
-11.197341770717138
20
-6.3839340377573492
30
0
10
-11.215695372559045
20
-6.4262318458734544
30
0
10
-11.230206517442243
20
-6.4602262508633501
30
0
10
-11.240993381541468
20
-6.4858097403652
30
0
10
-11.248141752066491
20
-6.5029043585564281
30
0
10
-11.251705219275848
20
-6.5114614072818338
30
0
0
ARC
5
113
100
AcDbEntity
8
0
100
AcDbCircle
10
1.3877787807814457e-16
20
2.7755575615628914e-16
30
0
40
13
210
0
220
0
230
1
100
AcDbArc
50
210.05834643918706
51
215.39619901535829
0
SPLINE
5
114
100
AcDbEntity
8
0
100
AcDbSpline
70
4
71
5
72
81
73
75
74
0
42
0.000000001
43
0.0000000001
44
0.0000000001
40
-1
40
-1
40
-1
40
-1
40
-1
40
-1
40
-0.9857142857142841
40
-0.97142857142856986
40
-0.95714285714285563
40
-0.94285714285714139
40
-0.92857142857142716
40
-0.91428571428571292
40
-0.89999999999999869
40
-0.88571428571428445
40
-0.87142857142857022
40
-0.85714285714285599
40
-0.84285714285714175
40
-0.82857142857142752
40
-0.81428571428571328
40
-0.79999999999999905
40
-0.78571428571428481
40
-0.77142857142857058
40
-0.75714285714285634
40
-0.74285714285714211
40
-0.72857142857142787
40
-0.71428571428571364
40
-0.6999999999999994
40
-0.68571428571428517
40
-0.67142857142857093
40
-0.6571428571428567
40
-0.64285714285714246
40
-0.62857142857142823
40
-0.61428571428571399
40
-0.59999999999999976
40
-0.58571428571428552
40
-0.57142857142857129
40
-0.55714285714285705
40
-0.54285714285714282
40
-0.52857142857142858
40
-0.51428571428571435
40
-0.50000000000000011
40
-0.48571428571428582
40
-0.47142857142857153
40
-0.45714285714285724
40
-0.44285714285714295
40
-0.42857142857142866
40
-0.41428571428571437
40
-0.40000000000000008
40
-0.38571428571428579
40
-0.3714285714285715
40
-0.35714285714285721
40
-0.34285714285714292
40
-0.32857142857142863
40
-0.31428571428571433
40
-0.30000000000000004
40
-0.28571428571428575
40
-0.27142857142857146
40
-0.25714285714285717
40
-0.24285714285714291
40
-0.22857142857142862
40
-0.21428571428571433
40
-0.20000000000000004
40
-0.18571428571428575
40
-0.17142857142857146
40
-0.15714285714285717
40
-0.14285714285714288
40
-0.12857142857142859
40
-0.1142857142857143
40
-0.10000000000000001
40
-0.085714285714285715
40
-0.071428571428571425
40
-0.057142857142857141
40
-0.042857142857142858
40
-0.028571428571428571
40
-0.014285714285714285
40
0
40
0
40
0
40
0
40
0
40
0
41
1
41
1
41
1
41
1
41
1
41
1
41
1
41
1
41
1
41
1
41
1
41
1
41
1
41
1
41
1
41
1
41
1
41
1
41
1
41
1
41
1
41
1
41
1
41
1
41
1
41
1
41
1
41
1
41
1
41
1
41
1
41
1
41
1
41
1
41
1
41
1
41
1
41
1
41
1
41
1
41
1
41
1
41
1
41
1
41
1
41
1
41
1
41
1
41
1
41
1
41
1
41
1
41
1
41
1
41
1
41
1
41
1
41
1
41
1
41
1
41
1
41
1
41
1
41
1
41
1
41
1
41
1
41
1
41
1
41
1
41
1
41
1
41
1
41
1
41
1
10
-10.597160902538585
20
-7.5299522445834732
30
0
10
-10.587896819455043
20
-7.5302655273029675
30
0
10
-10.569377467365337
20
-7.5308645017969305
30
0
10
-10.541624881471607
20
-7.5316801907067754
30
0
10
-10.504674335589435
20
-7.5326021752226637
30
0
10
-10.458574534245873
20
-7.5334782962657689
30
0
10
-10.412563569586347
20
-7.5340775332093646
30
0
10
-10.366642223220829
20
-7.5343992529313066
30
0
10
-10.320811674438339
20
-7.5344427694213358
30
0
10
-10.275073596029126
20
-7.5342074086801976
30
0
10
-10.229430043186568
20
-7.5336925074236172
30
0
10
-10.183883310527435
20
-7.5328974018594703
30
0
10
-10.138435795032478
20
-7.5318214221300108
30
0
10
-10.093089867178264
20
-7.5304638859270874
30
0
10
-10.047847709276272
20
-7.5288240958312649
30
0
10
-10.002711336415754
20
-7.5269013295771368
30
0
10
-9.9576826841442827
20
-7.5246948291906985
30
0
10
-9.9127636764361551
20
-7.5222037917676401
30
0
10
-9.8679562943719521
20
-7.5194273629931256
30
0
10
-9.823262660432734
20
-7.5163646280631919
30
0
10
-9.7786850375231857
20
-7.5130146216248761
30
0
10
-9.7342257752120656
20
-7.5093763485449596
30
0
10
-9.6898872685942834
20
-7.5054488057342175
30
0
10
-9.6456719173162
20
-7.5012310002550802
30
0
10
-9.6015820684781534
20
-7.4967219844053856
30
0
10
-9.5576200274887064
20
-7.4919208319028305
30
0
10
-9.5137881274672722
20
-7.486826565447644
30
0
10
-9.4700887853892119
20
-7.481438094918996
30
0
10
-9.4265245539314542
20
-7.4757541639620246
30
0
10
-9.3830981959839832
20
-7.4697732688195595
30
0
10
-9.3398126671093369
20
-7.4634936893737178
30
0
10
-9.2966709983854159
20
-7.4569136399299696
30
0
10
-9.2536761958214502
20
-7.4500314023329928
30
0
10
-9.2108311510739842
20
-7.4428454426617101
30
0
10
-9.1681384998853375
20
-7.4353546000082442
30
0
10
-9.1256006690559524
20
-7.4275580202407463
30
0
10
-9.083220160800817
20
-7.419454769300291
30
0
10
-9.0409997963280304
20
-7.4110435017700871
30
0
10
-8.9989429329044857
20
-7.4023221667635912
30
0
10
-8.9570537937872317
20
-7.3932875593529799
30
0
10
-8.9153373851099715
20
-7.3839354388592504
30
0
10
-8.8737988663224225
20
-7.3742613965426171
30
0
10
-8.8324430064788118
20
-7.364261606420671
30
0
10
-8.7912737066485764
20
-7.353933485099688
30
0
10
-8.7502932439104235
20
-7.3432767356397903
30
0
10
-8.7095025261429644
20
-7.3322929996934993
30
0
10
-8.6689026212088081
20
-7.3209837551176573
30
0
10
-8.6284960823944186
20
-7.3093484943431344
30
0
10
-8.5882881073067612
20
-7.2973831330059467
30
0
10
-8.5482883750962841
20
-7.2850774835339251
30
0
10
-8.508510328842732
20
-7.2724162519855966
30
0
10
-8.4689676932054887
20
-7.2593838478685626
30
0
10
-8.4296714273833793
20
-7.2459685934616056
30
0
10
-8.3906271186538302
20
-7.2321663273314218
30
0
10
-8.3518306553805584
20
-7.217986377277481
30
0
10
-8.313270765988614
20
-7.2034480788426318
30
0
10
-8.274937350677444
20
-7.1885693180048165
30
0
10
-8.2368288594205605
20
-7.1733563860318998
30
0
10
-8.198958607373882
20
-7.1577953013283633
30
0
10
-8.1613651894588468
20
-7.1418374782384584
30
0
10
-8.1241045508011069
20
-7.1254106972236277
30
0
10
-8.0872312442019396
20
-7.1084450031041468
30
0
10
-8.050781498246435
20
-7.0908960794490508
30
0
10
-8.0147587393364201
20
-7.0727653003123603
30
0
10
-7.9791098360088402
20
-7.0541324247482091
30
0
10
-7.9437527838499484
20
-7.0351181372149512
30
0
10
-7.908623216189417
20
-7.0158208846548984
30
0
10
-7.8737167180781276
20
-6.9962594944097916
30
0
10
-7.8391286040169135
20
-6.9763191273866454
30
0
10
-7.8051063334908246
20
-6.9556803208699449
30
0
10
-7.7719857661103307
20
-6.9339037030594586
30
0
10
-7.7464828993489103
20
-6.915214204507782
30
0
10
-7.7280351988252471
20
-6.9003247268010934
30
0
10
-7.7160541061579195
20
-6.8899903478847495
30
0
10
-7.7101429045794125
20
-6.8847211417501857
30
0
0
LINE
5
115
100
AcDbEntity
8
0
100
AcDbLine
10
-7.7101429045794125
20
-6.8847211417501866
30
0
11
-6.5596487038708862
21
-5.8591781925473683
31
0
0
ARC
5
116
100
AcDbEntity
8
0
100
AcDbCircle
10
-6.3932968103793586
20
-6.0457982545229836
30
0
40
0.24999999999999972
210
0
220
-0
230
1
100
AcDbArc
50
43.399801310511421
51
131.71360095536804
0
ARC
5
117
100
AcDbEntity
8
0
100
AcDbCircle
10
1.3877787807814457e-16
20
2.7755575615628914e-16
30
0
40
8.5492000000000026
210
0
220
0
230
1
100
AcDbArc
50
223.39980131051161
51
234.78201687130655
0
ARC
5
118
100
AcDbEntity
8
0
100
AcDbCircle
10
-5.0743997440109192
20
-7.1886290680478124
30
0
40
0.25000000000000022
210
-0
220
0
230
1
100
AcDbArc
50
-33.5317827735498
51
54.782016871306197
0
LINE
5
119
100
AcDbEntity
8
0
100
AcDbLine
10
-4.866004862363603
20
-7.3267289351846108
30
0
11
-5.7173768669461751
21
-8.6114627427636812
31
0
0
SPLINE
5
120
100
AcDbEntity
8
0
100
AcDbSpline
70
4
71
5
72
81
73
75
74
0
42
0.000000001
43
0.0000000001
44
0.0000000001
40
0
40
0
40
0
40
0
40
0
40
0
40
0.014285714285714285
40
0.028571428571428571
40
0.042857142857142858
40
0.057142857142857141
40
0.071428571428571425
40
0.085714285714285715
40
0.10000000000000001
40
0.1142857142857143
40
0.12857142857142859
40
0.14285714285714288
40
0.15714285714285717
40
0.17142857142857146
40
0.18571428571428575
40
0.20000000000000004
40
0.21428571428571433
40
0.22857142857142862
40
0.24285714285714291
40
0.25714285714285717
40
0.27142857142857146
40
0.28571428571428575
40
0.30000000000000004
40
0.31428571428571433
40
0.32857142857142863
40
0.34285714285714292
40
0.35714285714285721
40
0.3714285714285715
40
0.38571428571428579
40
0.40000000000000008
40
0.41428571428571437
40
0.42857142857142866
40
0.44285714285714295
40
0.45714285714285724
40
0.47142857142857153
40
0.48571428571428582
40
0.50000000000000011
40
0.51428571428571435
40
0.52857142857142858
40
0.54285714285714282
40
0.55714285714285705
40
0.57142857142857129
40
0.58571428571428552
40
0.59999999999999976
40
0.61428571428571399
40
0.62857142857142823
40
0.64285714285714246
40
0.6571428571428567
40
0.67142857142857093
40
0.68571428571428517
40
0.6999999999999994
40
0.71428571428571364
40
0.72857142857142787
40
0.74285714285714211
40
0.75714285714285634
40
0.77142857142857058
40
0.78571428571428481
40
0.79999999999999905
40
0.81428571428571328
40
0.82857142857142752
40
0.84285714285714175
40
0.85714285714285599
40
0.87142857142857022
40
0.88571428571428445
40
0.89999999999999869
40
0.91428571428571292
40
0.92857142857142716
40
0.94285714285714139
40
0.95714285714285563
40
0.97142857142856986
40
0.9857142857142841
40
1
40
1
40
1
40
1
40
1
40
1
41
1
41
1
41
1
41
1
41
1
41
1
41
1
41
1
41
1
41
1
41
1
41
1
41
1
41
1
41
1
41
1
41
1
41
1
41
1
41
1
41
1
41
1
41
1
41
1
41
1
41
1
41
1
41
1
41
1
41
1
41
1
41
1
41
1
41
1
41
1
41
1
41
1
41
1
41
1
41
1
41
1
41
1
41
1
41
1
41
1
41
1
41
1
41
1
41
1
41
1
41
1
41
1
41
1
41
1
41
1
41
1
41
1
41
1
41
1
41
1
41
1
41
1
41
1
41
1
41
1
41
1
41
1
41
1
41
1
41
1
41
1
41
1
41
1
41
1
41
1
10
-5.7173768669461751
20
-8.6114627427636812
30
0
10
-5.7217511884632106
20
-8.6180636630522365
30
0
10
-5.7302752910378434
20
-8.6313935409356546
30
0
10
-5.7423878338137921
20
-8.6517724640791744
30
0
10
-5.7572576638595869
20
-8.6796755413928537
30
0
10
-5.7740990789097797
20
-8.7155581249951641
30
0
10
-5.7896859382072305
20
-8.7521713062749402
30
0
10
-5.8045009391869149
20
-8.7892451733149617
30
0
10
-5.8188955100511297
20
-8.826580249695624
30
0
10
-5.8329968856642411
20
-8.8640985343872298
30
0
10
-5.8467858020069361
20
-8.9018017179909794
30
0
10
-5.8601556538525479
20
-8.9397395015566374
30
0
10
-5.8729753146916153
20
-8.9779758796220843
30
0
10
-5.8851582759066012
20
-9.0165520919518034
30
0
10
-5.8967036650571947
20
-9.0554645514715144
30
0
10
-5.907660503362222
20
-9.0946837052365996
30
0
10
-5.9181057976316342
20
-9.1341655113747251
30
0
10
-5.9281189941347288
20
-9.1738648721129046
30
0
10
-5.9377536766253343
20
-9.2137504998300876
30
0
10
-5.9470255793307514
20
-9.2538112046879508
30
0
10
-5.9559282544273788
20
-9.2940476255951783
30
0
10
-5.9644425606392595
20
-9.3344672141108589
30
0
10
-5.9725477551191215
20
-9.3750783753469076
30
0
10
-5.9802340198642012
20
-9.4158838516048053
30
0
10
-5.987506269102882
20
-9.4568787047112615
30
0
10
-5.9943776213506359
20
-9.4980537489293013
30
0
10
-6.000865461633806
20
-9.5393976180551849
30
0
10
-6.0069868413733118
20
-9.5808991823951448
30
0
10
-6.0127532219332576
20
-9.6225503111612163
30
0
10
-6.0181693858012864
20
-9.664346440916173
30
0
10
-6.023236198750757
20
-9.7062851165969537
30
0
10
-6.0279523499399712
20
-9.7483650708892853
30
0
10
-6.0323163436306659
20
-9.7905851715239383
30
0
10
-6.0363287978023799
20
-9.8329432068585376
30
0
10
-6.0399928247336838
20
-9.8754356831861685
30
0
10
-6.0433128901711841
20
-9.9180584244887662
30
0
10
-6.0462940922463035
20
-9.9608069512614605
30
0
10
-6.048941340921159
20
-10.003676911837317
30
0
10
-6.0512584095341682
20
-10.046664582054747
30
0
10
-6.0532478058857029
20
-10.089766930690571
30
0
10
-6.0549112631979263
20
-10.132981356725296
30
0
10
-6.0562500621247137
20
-10.176305516343319
30
0
10
-6.0572653934737941
20
-10.219737129001167
30
0
10
-6.0579587814419158
20
-10.263273750998989
30
0
10
-6.0583321558626935
20
-10.306912738412866
30
0
10
-6.0583876452028118
20
-10.350651360349408
30
0
10
-6.0581274483483742
20
-10.394486870713543
30
0
10
-6.0575536885293442
20
-10.43841658882439
30
0
10
-6.0566682473970541
20
-10.482437993921172
30
0
10
-6.0554727318022916
20
-10.52654873810746
30
0
10
-6.0539685647414849
20
-10.570746584149589
30
0
10
-6.052157045604412
20
-10.615029361760193
30
0
10
-6.0500394193390106
20
-10.659394920820171
30
0
10
-6.0476169580284003
20
-10.703841072991354
30
0
10
-6.0448909860087614
20
-10.748365584362073
30
0
10
-6.0418628370168665
20
-10.79296622697051
30
0
10
-6.0385338304354077
20
-10.837640816785353
30
0
10
-6.0349052438363611
20
-10.882387251319074
30
0
10
-6.0309782847728535
20
-10.927203559884589
30
0
10
-6.0267540808011884
20
-10.972087903147536
30
0
10
-6.0222337004633628
20
-11.017038490982106
30
0
10
-6.0174181694754338
20
-11.06205351541275
30
0
10
-6.0123084895282952
20
-11.107131084650007
30
0
10
-6.0069056615179548
20
-11.152269137848315
30
0
10
-6.0012106981616453
20
-11.197465425761713
30
0
10
-5.9952246036248527
20
-11.242717671137958
30
0
10
-5.9889483615012695
20
-11.288023697183638
30
0
10
-5.9823829208084085
20
-11.333381564019479
30
0
10
-5.9755291867480542
20
-11.378789711801911
30
0
10
-5.9683880061781993
20
-11.42424707087482
30
0
10
-5.9609601170114086
20
-11.469752957686572
30
0
10
-5.9547889060071713
20
-11.506196188212684
30
0
10
-5.9500319148611673
20
-11.533550208162652
30
0
10
-5.9468034584663325
20
-11.551795816992547
30
0
10
-5.9451749480274234
20
-11.560921020288447
30
0
0
ARC
5
121
100
AcDbEntity
8
0
100
AcDbCircle
10
1.3877787807814457e-16
20
2.7755575615628914e-16
30
0
40
13.000000000000005
210
0
220
0
230
1
100
AcDbArc
50
242.78561916645975
51
248.12347174263107
0
SPLINE
5
122
100
AcDbEntity
8
0
100
AcDbSpline
70
4
71
5
72
81
73
75
74
0
42
0.000000001
43
0.0000000001
44
0.0000000001
40
-1
40
-1
40
-1
40
-1
40
-1
40
-1
40
-0.9857142857142841
40
-0.97142857142856986
40
-0.95714285714285563
40
-0.94285714285714139
40
-0.92857142857142716
40
-0.91428571428571292
40
-0.89999999999999869
40
-0.88571428571428445
40
-0.87142857142857022
40
-0.85714285714285599
40
-0.84285714285714175
40
-0.82857142857142752
40
-0.81428571428571328
40
-0.79999999999999905
40
-0.78571428571428481
40
-0.77142857142857058
40
-0.75714285714285634
40
-0.74285714285714211
40
-0.72857142857142787
40
-0.71428571428571364
40
-0.6999999999999994
40
-0.68571428571428517
40
-0.67142857142857093
40
-0.6571428571428567
40
-0.64285714285714246
40
-0.62857142857142823
40
-0.61428571428571399
40
-0.59999999999999976
40
-0.58571428571428552
40
-0.57142857142857129
40
-0.55714285714285705
40
-0.54285714285714282
40
-0.52857142857142858
40
-0.51428571428571435
40
-0.50000000000000011
40
-0.48571428571428582
40
-0.47142857142857153
40
-0.45714285714285724
40
-0.44285714285714295
40
-0.42857142857142866
40
-0.41428571428571437
40
-0.40000000000000008
40
-0.38571428571428579
40
-0.3714285714285715
40
-0.35714285714285721
40
-0.34285714285714292
40
-0.32857142857142863
40
-0.31428571428571433
40
-0.30000000000000004
40
-0.28571428571428575
40
-0.27142857142857146
40
-0.25714285714285717
40
-0.24285714285714291
40
-0.22857142857142862
40
-0.21428571428571433
40
-0.20000000000000004
40
-0.18571428571428575
40
-0.17142857142857146
40
-0.15714285714285717
40
-0.14285714285714288
40
-0.12857142857142859
40
-0.1142857142857143
40
-0.10000000000000001
40
-0.085714285714285715
40
-0.071428571428571425
40
-0.057142857142857141
40
-0.042857142857142858
40
-0.028571428571428571
40
-0.014285714285714285
40
0
40
0
40
0
40
0
40
0
40
0
41
1
41
1
41
1
41
1
41
1
41
1
41
1
41
1
41
1
41
1
41
1
41
1
41
1
41
1
41
1
41
1
41
1
41
1
41
1
41
1
41
1
41
1
41
1
41
1
41
1
41
1
41
1
41
1
41
1
41
1
41
1
41
1
41
1
41
1
41
1
41
1
41
1
41
1
41
1
41
1
41
1
41
1
41
1
41
1
41
1
41
1
41
1
41
1
41
1
41
1
41
1
41
1
41
1
41
1
41
1
41
1
41
1
41
1
41
1
41
1
41
1
41
1
41
1
41
1
41
1
41
1
41
1
41
1
41
1
41
1
41
1
41
1
41
1
41
1
41
1
10
-4.8438995103278319
20
-12.063856660862889
30
0
10
-4.8359366942797983
20
-12.059111669606175
30
0
10
-4.8200333938485391
20
-12.049603241362769
30
0
10
-4.7962454382012298
20
-12.035285261815776
30
0
10
-4.7646621984754596
20
-12.016083911215814
30
0
10
-4.7254069109354377
20
-11.991897516855589
30
0
10
-4.6863760524156062
20
-11.967526221505945
30
0
10
-4.6475706227397886
20
-11.942969915120896
30
0
10
-4.6089919848741845
20
-11.918228658163665
30
0
10
-4.5706419104510099
20
-11.893302788008688
30
0
10
-4.5325224870075074
20
-11.868192857787152
30
0
10
-4.4946360037712578
20
-11.842899549645075
30
0
10
-4.4569848393632281
20
-11.817423595967895
30
0
10
-4.4195713568388353
20
-11.791765704337854
30
0
10
-4.3823977691287404
20
-11.765926467895051
30
0
10
-4.3454661619200499
20
-11.739906368470665
30
0
10
-4.3087785732906889
20
-11.71370581485241
30
0
10
-4.2723370558736713
20
-11.687325171773232
30
0
10
-4.2361437381375051
20
-11.660764791590781
30
0
10
-4.2002009002072427
20
-11.634025052222889
30
0
10
-4.1645109676686616
20
-11.607106364981604
30
0
10
-4.1290764551144168
20
-11.58000916298036
30
0
10
-4.093899919737539
20
-11.552733897252882
30
0
10
-4.0589839170715907
20
-11.525281029833693
30
0
10
-4.024330933989491
20
-11.497651032403251
30
0
10
-3.9899434107103584
20
-11.469844372121262
30
0
10
-3.9558238383472939
20
-11.441861488210435
30
0
10
-3.9219748395531697
20
-11.413702770318297
30
0
10
-3.8883992410131936
20
-11.38536854161323
30
0
10
-3.8551001800108322
20
-11.356859030785298
30
0
10
-3.8220810728894454
20
-11.328174388677004
30
0
10
-3.7893454349733826
20
-11.299314751790948
30
0
10
-3.7568967239834192
20
-11.270280299894182
30
0
10
-3.7247382018361885
20
-11.241071305917741
30
0
10
-3.692872713493411
20
-11.211688218233654
30
0
10
-3.6613027622880745
20
-11.182131630327861
30
0
10
-3.6300309582077563
20
-11.152402109219544
30
0
10
-3.59906040199097
20
-11.122500048332331
30
0
10
-3.5683950267433318
20
-11.092425537426189
30
0
10
-3.5380401180095471
20
-11.062178163609406
30
0
10
-3.5080021799014465
20
-11.031757065916008
30
0
10
-3.4782879363690107
20
-11.001161324887185
30
0
10
-3.4489034678782158
20
-10.9703903002471
30
0
10
-3.4198534529056017
20
-10.939443927784021
30
0
10
-3.3911399675894915
20
-10.908323188777921
30
0
10
-3.3627628881416176
20
-10.87702995511102
30
0
10
-3.3347223139154365
20
-10.845566047365718
30
0
10
-3.3070206672847986
20
-10.813932418958579
30
0
10
-3.2796645289288069
20
-10.78212844394244
30
0
10
-3.2526675492843178
20
-10.750150784930042
30
0
10
-3.2260493059186786
20
-10.717993843716711
30
0
10
-3.1998297736066346
20
-10.685651924856703
30
0
10
-3.1740244852656652
20
-10.653121129416006
30
0
10
-3.1486403910533434
20
-10.62040097728438
30
0
10
-3.1236689890519891
20
-10.587497092587682
30
0
10
-3.0990903434256678
20
-10.554419647546155
30
0
10
-3.0748862877917436
20
-10.521178228437496
30
0
10
-3.0510521168687585
20
-10.48777728980544
30
0
10
-3.0276065910998984
20
-10.454212268300139
30
0
10
-3.0046084459878135
20
-10.420463157056927
30
0
10
-2.9821437903974664
20
-10.386499447352318
30
0
10
-2.9602963376912079
20
-10.352291782615307
30
0
10
-2.9391205245656966
20
-10.317822468143639
30
0
10
-2.9186184906238881
20
-10.283094512317801
30
0
10
-2.8987024178345551
20
-10.248146287686236
30
0
10
-2.879238072750709
20
-10.21303498554261
30
0
10
-2.8601180822481673
20
-10.177808625475679
30
0
10
-2.8413285534059627
20
-10.142480659151493
30
0
10
-2.8230117565857578
20
-10.107006008687021
30
0
10
-2.8055485825372442
20
-10.071249711642505
30
0
10
-2.7894591166735094
20
-10.035023724353138
30
0
10
-2.7781090456879549
20
-10.00551322693634
30
0
10
-2.7706397118486432
20
-9.9830138213222881
30
0
10
-2.7661477623803044
20
-9.9678425208156227
30
0
10
-2.7640236910810407
20
-9.9602139456861565
30
0
0
LINE
5
123
100
AcDbEntity
8
0
100
AcDbLine
10
-2.7640236910810412
20
-9.9602139456861565
30
0
11
-2.3506167586260434
21
-8.4754681914501955
31
0
0
ARC
5
124
100
AcDbEntity
8
0
100
AcDbCircle
10
-2.1097782176730275
20
-8.5425263542018097
30
0
40
0.25000000000000011
210
0
220
-0
230
1
100
AcDbArc
50
76.127074037784183
51
164.44087368264084
0
ARC
5
125
100
AcDbEntity
8
0
100
AcDbCircle
10
1.3877787807814457e-16
20
2.7755575615628914e-16
30
0
40
8.5492000000000026
210
0
220
0
230
1
100
AcDbArc
50
256.12707403778438
51
267.5092895985793
0
ARC
5
126
100
AcDbEntity
8
0
100
AcDbCircle
10
-0.38239041591238898
20
-8.7908872254066814
30
0
40
0.24999999999999994
210
-0
220
0
230
1
100
AcDbArc
50
-0.8045100462766861
51
87.509289598579201
0
LINE
5
127
100
AcDbEntity
8
0
100
AcDbLine
10
-0.13241506044330087
20
-8.7943974473516633
30
0
11
-0.15405523110956221
21
-10.335470758241543
31
0
0
SPLINE
5
128
100
AcDbEntity
8
0
100
AcDbSpline
70
4
71
5
72
81
73
75
74
0
42
0.000000001
43
0.0000000001
44
0.0000000001
40
0
40
0
40
0
40
0
40
0
40
0
40
0.014285714285714285
40
0.028571428571428571
40
0.042857142857142858
40
0.057142857142857141
40
0.071428571428571425
40
0.085714285714285715
40
0.10000000000000001
40
0.1142857142857143
40
0.12857142857142859
40
0.14285714285714288
40
0.15714285714285717
40
0.17142857142857146
40
0.18571428571428575
40
0.20000000000000004
40
0.21428571428571433
40
0.22857142857142862
40
0.24285714285714291
40
0.25714285714285717
40
0.27142857142857146
40
0.28571428571428575
40
0.30000000000000004
40
0.31428571428571433
40
0.32857142857142863
40
0.34285714285714292
40
0.35714285714285721
40
0.3714285714285715
40
0.38571428571428579
40
0.40000000000000008
40
0.41428571428571437
40
0.42857142857142866
40
0.44285714285714295
40
0.45714285714285724
40
0.47142857142857153
40
0.48571428571428582
40
0.50000000000000011
40
0.51428571428571435
40
0.52857142857142858
40
0.54285714285714282
40
0.55714285714285705
40
0.57142857142857129
40
0.58571428571428552
40
0.59999999999999976
40
0.61428571428571399
40
0.62857142857142823
40
0.64285714285714246
40
0.6571428571428567
40
0.67142857142857093
40
0.68571428571428517
40
0.6999999999999994
40
0.71428571428571364
40
0.72857142857142787
40
0.74285714285714211
40
0.75714285714285634
40
0.77142857142857058
40
0.78571428571428481
40
0.79999999999999905
40
0.81428571428571328
40
0.82857142857142752
40
0.84285714285714175
40
0.85714285714285599
40
0.87142857142857022
40
0.88571428571428445
40
0.89999999999999869
40
0.91428571428571292
40
0.92857142857142716
40
0.94285714285714139
40
0.95714285714285563
40
0.97142857142856986
40
0.9857142857142841
40
1
40
1
40
1
40
1
40
1
40
1
41
1
41
1
41
1
41
1
41
1
41
1
41
1
41
1
41
1
41
1
41
1
41
1
41
1
41
1
41
1
41
1
41
1
41
1
41
1
41
1
41
1
41
1
41
1
41
1
41
1
41
1
41
1
41
1
41
1
41
1
41
1
41
1
41
1
41
1
41
1
41
1
41
1
41
1
41
1
41
1
41
1
41
1
41
1
41
1
41
1
41
1
41
1
41
1
41
1
41
1
41
1
41
1
41
1
41
1
41
1
41
1
41
1
41
1
41
1
41
1
41
1
41
1
41
1
41
1
41
1
41
1
41
1
41
1
41
1
41
1
41
1
41
1
41
1
41
1
41
1
10
-0.15405523110956221
20
-10.335470758241543
30
0
10
-0.15416641759874505
20
-10.343388742515012
30
0
10
-0.15413067292839422
20
-10.359211027160669
30
0
10
-0.15330271466305334
20
-10.382903403278307
30
0
10
-0.15072646919328303
20
-10.414416202716684
30
0
10
-0.14549477977095937
20
-10.453707709339085
30
0
10
-0.13881269996393497
20
-10.492935569791022
30
0
10
-0.13123222609423668
20
-10.532133685654417
30
0
10
-0.12315684347313671
20
-10.571324243117122
30
0
10
-0.11473575942024361
20
-10.610510411898421
30
0
10
-0.10595185400324059
20
-10.649683199307402
30
0
10
-0.096688574782400338
20
-10.688826781390869
30
0
10
-0.086801013059119025
20
-10.72792410143663
30
0
10
-0.076194097253291515
20
-10.766963082452552
30
0
10
-0.064869032740194066
20
-10.805940235122877
30
0
10
-0.052883036321484944
20
-10.844857200800366
30
0
10
-0.040324701081950187
20
-10.883718562129001
30
0
10
-0.027285243173156837
20
-10.922529332343906
30
0
10
-0.013826655482339079
20
-10.961292160187824
30
0
10
3.1775832864955333e-05
20
-11.000006138735234
30
0
10
0.014295820446950103
20
-11.038668319513702
30
0
10
0.028985609642936394
20
-11.07727462261856
30
0
10
0.044123137560944103
20
-11.115820904449995
30
0
10
0.059718146230607339
20
-11.154304163965767
30
0
10
0.075763831761882505
20
-11.192722903742611
30
0
10
0.092244191972944423
20
-11.231076488651768
30
0
10
0.10913845661527866
20
-11.269364755889042
30
0
10
0.12642626395406142
20
-11.307587561254378
30
0
10
0.14409357624039276
20
-11.345744261174929
30
0
10
0.16213390300922392
20
-11.383833602251043
30
0
10
0.18054518861834623
20
-11.421853987224653
30
0
10
0.19932785065615355
20
-11.459803641268634
30
0
10
0.21848253526678407
20
-11.497680803200334
30
0
10
0.23800752686861659
20
-11.53548394657275
30
0
10
0.2578983184057515
20
-11.573211814917437
30
0
10
0.27814889532725595
20
-11.610863309509332
30
0
10
0.29875254700889142
20
-11.648437418207084
30
0
10
0.31970279023890935
20
-11.685933134681441
30
0
10
0.34099443724926237
20
-11.723349365989069
30
0
10
0.36262373954106142
20
-11.760684917922015
30
0
10
0.38458783281772657
20
-11.797938539414082
30
0
10
0.40688437256228394
20
-11.835108951095874
30
0
10
0.42951112404862823
20
-11.872194878251399
30
0
10
0.45246548387698038
20
-11.909195089152501
30
0
10
0.47574439915480715
20
-11.946108402935668
30
0
10
0.49934460286955029
20
-11.982933672963153
30
0
10
0.52326276054942555
20
-12.019669777880353
30
0
10
0.5474956367342243
20
-12.056315610459798
30
0
10
0.57204028565194576
20
-12.092870067400092
30
0
10
0.59689408616504291
20
-12.129332042254186
30
0
10
0.62205463163290786
20
-12.165700422271309
30
0
10
0.64751965559336599
20
-12.201974084192706
30
0
10
0.67328694828741376
20
-12.238151892292748
30
0
10
0.69935425646569516
20
-12.274232693364285
30
0
10
0.72571925828188943
20
-12.310215324111427
30
0
10
0.75237962719813201
20
-12.346098631325958
30
0
10
0.77933307250259043
20
-12.381881490995962
30
0
10
0.80657738274275803
20
-12.417562825103941
30
0
10
0.83411047662641957
20
-12.453141628654922
30
0
10
0.86193041117361924
20
-12.488616963905345
30
0
10
0.89003531965454519
20
-12.523987902602959
30
0
10
0.91842336171656602
20
-12.559253478325926
30
0
10
0.9470926719050754
20
-12.594412641154651
30
0
10
0.97604129403553896
20
-12.629464198520768
30
0
10
1.0052671601218399
20
-12.664406805754435
30
0
10
1.0347681942306897
20
-12.699239090002008
30
0
10
1.064542392047062
20
-12.733959751799237
30
0
10
1.0945879064286956
20
-12.768567672293429
30
0
10
1.1249031325562941
20
-12.803062028649705
30
0
10
1.1554867797078183
20
-12.837442378862081
30
0
10
1.1863378575558059
20
-12.871708546835983
30
0
10
1.2112321085573274
20
-12.89903013470183
30
0
10
1.2300226438709971
20
-12.919469977040075
30
0
10
1.2426029150915141
20
-12.933073724622455
30
0
10
1.248906362620843
20
-12.939869894918004
30
0
0
ARC
5
129
100
AcDbEntity
8
0
100
AcDbCircle
10
1.3877787807814457e-16
20
2.7755575615628914e-16
30
0
40
13.000000000000005
210
-0
220
0
230
1
100
AcDbArc
50
275.5128918937325
51
280.85074446990376
0
SPLINE
5
130
100
AcDbEntity
8
0
100
AcDbSpline
70
4
71
5
72
81
73
75
74
0
42
0.000000001
43
0.0000000001
44
0.0000000001
40
-1
40
-1
40
-1
40
-1
40
-1
40
-1
40
-0.9857142857142841
40
-0.97142857142856986
40
-0.95714285714285563
40
-0.94285714285714139
40
-0.92857142857142716
40
-0.91428571428571292
40
-0.89999999999999869
40
-0.88571428571428445
40
-0.87142857142857022
40
-0.85714285714285599
40
-0.84285714285714175
40
-0.82857142857142752
40
-0.81428571428571328
40
-0.79999999999999905
40
-0.78571428571428481
40
-0.77142857142857058
40
-0.75714285714285634
40
-0.74285714285714211
40
-0.72857142857142787
40
-0.71428571428571364
40
-0.6999999999999994
40
-0.68571428571428517
40
-0.67142857142857093
40
-0.6571428571428567
40
-0.64285714285714246
40
-0.62857142857142823
40
-0.61428571428571399
40
-0.59999999999999976
40
-0.58571428571428552
40
-0.57142857142857129
40
-0.55714285714285705
40
-0.54285714285714282
40
-0.52857142857142858
40
-0.51428571428571435
40
-0.50000000000000011
40
-0.48571428571428582
40
-0.47142857142857153
40
-0.45714285714285724
40
-0.44285714285714295
40
-0.42857142857142866
40
-0.41428571428571437
40
-0.40000000000000008
40
-0.38571428571428579
40
-0.3714285714285715
40
-0.35714285714285721
40
-0.34285714285714292
40
-0.32857142857142863
40
-0.31428571428571433
40
-0.30000000000000004
40
-0.28571428571428575
40
-0.27142857142857146
40
-0.25714285714285717
40
-0.24285714285714291
40
-0.22857142857142862
40
-0.21428571428571433
40
-0.20000000000000004
40
-0.18571428571428575
40
-0.17142857142857146
40
-0.15714285714285717
40
-0.14285714285714288
40
-0.12857142857142859
40
-0.1142857142857143
40
-0.10000000000000001
40
-0.085714285714285715
40
-0.071428571428571425
40
-0.057142857142857141
40
-0.042857142857142858
40
-0.028571428571428571
40
-0.014285714285714285
40
0
40
0
40
0
40
0
40
0
40
0
41
1
41
1
41
1
41
1
41
1
41
1
41
1
41
1
41
1
41
1
41
1
41
1
41
1
41
1
41
1
41
1
41
1
41
1
41
1
41
1
41
1
41
1
41
1
41
1
41
1
41
1
41
1
41
1
41
1
41
1
41
1
41
1
41
1
41
1
41
1
41
1
41
1
41
1
41
1
41
1
41
1
41
1
41
1
41
1
41
1
41
1
41
1
41
1
41
1
41
1
41
1
41
1
41
1
41
1
41
1
41
1
41
1
41
1
41
1
41
1
41
1
41
1
41
1
41
1
41
1
41
1
41
1
41
1
41
1
41
1
41
1
41
1
41
1
41
1
41
1
10
2.4472657510535489
20
-12.767571826456292
30
0
10
2.4513991622333933
20
-12.759275062420869
30
0
10
2.4596372254866345
20
-12.742678090224036
30
0
10
2.4719080430471663
20
-12.717772299560364
30
0
10
2.4880965211601085
20
-12.684543906989777
30
0
10
2.5080440184672415
20
-12.642974006542698
30
0
10
2.527702749046199
20
-12.601369892973985
30
0
10
2.5470718122963092
20
-12.559732014252628
30
0
10
2.5661500943063271
20
-12.518061158118687
30
0
10
2.5849362870827841
20
-12.476358566206294
30
0
10
2.6034289335228915
20
-12.434625832446851
30
0
10
2.6216264766018464
20
-12.39286476834798
30
0
10
2.639527311253818
20
-12.351077276011093
30
0
10
2.6571298320979282
20
-12.309265228256471
30
0
10
2.6744324981741929
20
-12.267430320465962
30
0
10
2.6914338153885615
20
-12.225574085589326
30
0
10
2.7081322902081046
20
-12.183697969388783
30
0
10
2.7245263930375678
20
-12.141803388434404
30
0
10
2.7406145237942283
20
-12.09989178988527
30
0
10
2.756394968632633
20
-12.057964724394754
30
0
10
2.7718659093922593
20
-12.016023849351249
30
0
10
2.7870254648219599
20
-11.974070888604398
30
0
10
2.8018717275212923
20
-11.932107604110833
30
0
10
2.8164027974333554
20
-11.890135766184493
30
0
10
2.8306168374772236
20
-11.84815711613324
30
0
10
2.8445120473755416
20
-11.806173366238877
30
0
10
2.8580865689323449
20
-11.764186232796485
30
0
10
2.8713384064909935
20
-11.72219746151162
30
0
10
2.8842653568105874
20
-11.680208852472219
30
0
10
2.8968649042795129
20
-11.638222294208111
30
0
10
2.9091342564384615
20
-11.596239760630752
30
0
10
2.9210705298072828
20
-11.554263267101263
30
0
10
2.9326709127555652
20
-11.512294834234298
30
0
10
2.9439328087420744
20
-11.470336455159329
30
0
10
2.9548540668409324
20
-11.428390045173341
30
0
10
2.965432901977143
20
-11.386457456952471
30
0
10
2.9756674250431523
20
-11.344540578569424
30
0
10
2.9855552402325984
20
-11.302641417379027
30
0
10
2.9950930873343955
20
-11.260762175289599
30
0
10
3.0042762966392673
20
-11.21890536253574
30
0
10
3.0130989310668168
20
-11.177073771215124
30
0
10
3.0215548369734035
20
-11.135270263071588
30
0
10
3.029638552986289
20
-11.093497586818922
30
0
10
3.0373461086050746
20
-11.051758217814152
30
0
10
3.0446762877910674
20
-11.010054104007654
30
0
10
3.0516302066975216
20
-10.96838675320196
30
0
10
3.0582087660241442
20
-10.926757750682983
30
0
10
3.0644104433962855
20
-10.885169208149952
30
0
10
3.0702293643818197
20
-10.843624156806342
30
0
10
3.0756522411747373
20
-10.802127169046663
30
0
10
3.0806595774593952
20
-10.760684119793471
30
0
10
3.0852314901955271
20
-10.719301016911464
30
0
10
3.0893528043385539
20
-10.677982978137827
30
0
10
3.0930174134766766
20
-10.636733357117006
30
0
10
3.0962355105101773
20
-10.595552288681017
30
0
10
3.099029366048931
20
-10.554437552119433
30
0
10
3.101419445359523
20
-10.513387390434287
30
0
10
3.1034121150847662
20
-10.472403007159013
30
0
10
3.1049891258023661
20
-10.431490706020774
30
0
10
3.1060902495355398
20
-10.390665410984148
30
0
10
3.1066265526362304
20
-10.349948010444868
30
0
10
3.1065117395820661
20
-10.30935906694452
30
0
10
3.105690448831381
20
-10.268913125452496
30
0
10
3.1041625068889092
20
-10.228613873536204
30
0
10
3.1020225367496268
20
-10.188446114225391
30
0
10
3.0994143827227978
20
-10.148385387817395
30
0
10
3.0964543341781892
20
-10.108414040667268
30
0
10
3.0931613511043752
20
-10.068535877956453
30
0
10
3.0893913771134587
20
-10.028789894921218
30
0
10
3.0847510203128863
20
-9.9892684790186017
30
0
10
3.0787010929308578
20
-9.9500946172541287
30
0
10
3.072294800798403
20
-9.9191324953908335
30
0
10
3.0664143072351719
20
-9.8961665641786762
30
0
10
3.0619909512869259
20
-9.8809751227972686
30
0
10
3.0596535146773993
20
-9.8734091973755689
30
0
0
LINE
5
131
100
AcDbEntity
8
0
100
AcDbLine
10
3.0596535146773989
20
-9.8734091973755689
30
0
11
2.6047193988182094
21
-8.4008569243641915
31
0
0
ARC
5
132
100
AcDbEntity
8
0
100
AcDbCircle
10
2.8435800521639463
20
-8.327062695028502
30
0
40
0.25000000000000017
210
0
220
0
230
1
100
AcDbArc
50
108.85434676505686
51
197.16814640991373
0
ARC
5
133
100
AcDbEntity
8
0
100
AcDbCircle
10
1.3877787807814457e-16
20
2.7755575615628914e-16
30
0
40
8.5492000000000026
210
-0
220
0
230
1
100
AcDbArc
50
288.85434676505707
51
300.23656232585199
0
ARC
5
134
100
AcDbEntity
8
0
100
AcDbCircle
10
4.4310251673967578
20
-7.6021008021399306
30
0
40
0.24999999999999994
210
0
220
-0
230
1
100
AcDbArc
50
31.92276268099566
51
120.23656232585284
0
LINE
5
135
100
AcDbEntity
8
0
100
AcDbLine
10
4.6432155875676431
20
-7.4699069082276059
30
0
11
5.4581778521020912
21
-8.7780398349244475
31
0
0
SPLINE
5
136
100
AcDbEntity
8
0
100
AcDbSpline
70
4
71
5
72
81
73
75
74
0
42
0.000000001
43
0.0000000001
44
0.0000000001
40
0
40
0
40
0
40
0
40
0
40
0
40
0.014285714285714285
40
0.028571428571428571
40
0.042857142857142858
40
0.057142857142857141
40
0.071428571428571425
40
0.085714285714285715
40
0.10000000000000001
40
0.1142857142857143
40
0.12857142857142859
40
0.14285714285714288
40
0.15714285714285717
40
0.17142857142857146
40
0.18571428571428575
40
0.20000000000000004
40
0.21428571428571433
40
0.22857142857142862
40
0.24285714285714291
40
0.25714285714285717
40
0.27142857142857146
40
0.28571428571428575
40
0.30000000000000004
40
0.31428571428571433
40
0.32857142857142863
40
0.34285714285714292
40
0.35714285714285721
40
0.3714285714285715
40
0.38571428571428579
40
0.40000000000000008
40
0.41428571428571437
40
0.42857142857142866
40
0.44285714285714295
40
0.45714285714285724
40
0.47142857142857153
40
0.48571428571428582
40
0.50000000000000011
40
0.51428571428571435
40
0.52857142857142858
40
0.54285714285714282
40
0.55714285714285705
40
0.57142857142857129
40
0.58571428571428552
40
0.59999999999999976
40
0.61428571428571399
40
0.62857142857142823
40
0.64285714285714246
40
0.6571428571428567
40
0.67142857142857093
40
0.68571428571428517
40
0.6999999999999994
40
0.71428571428571364
40
0.72857142857142787
40
0.74285714285714211
40
0.75714285714285634
40
0.77142857142857058
40
0.78571428571428481
40
0.79999999999999905
40
0.81428571428571328
40
0.82857142857142752
40
0.84285714285714175
40
0.85714285714285599
40
0.87142857142857022
40
0.88571428571428445
40
0.89999999999999869
40
0.91428571428571292
40
0.92857142857142716
40
0.94285714285714139
40
0.95714285714285563
40
0.97142857142856986
40
0.9857142857142841
40
1
40
1
40
1
40
1
40
1
40
1
41
1
41
1
41
1
41
1
41
1
41
1
41
1
41
1
41
1
41
1
41
1
41
1
41
1
41
1
41
1
41
1
41
1
41
1
41
1
41
1
41
1
41
1
41
1
41
1
41
1
41
1
41
1
41
1
41
1
41
1
41
1
41
1
41
1
41
1
41
1
41
1
41
1
41
1
41
1
41
1
41
1
41
1
41
1
41
1
41
1
41
1
41
1
41
1
41
1
41
1
41
1
41
1
41
1
41
1
41
1
41
1
41
1
41
1
41
1
41
1
41
1
41
1
41
1
41
1
41
1
41
1
41
1
41
1
41
1
41
1
41
1
41
1
41
1
41
1
41
1
10
5.4581778521020912
20
-8.7780398349244475
30
0
10
5.4623651015654726
20
-8.7847609791218098
30
0
10
5.4709493448005295
20
-8.798052206949631
30
0
10
5.4844549332079886
20
-8.8175358740263636
30
0
10
5.5036593144595507
20
-8.8426533044265572
30
0
10
5.5293030839281521
20
-8.8728789583369512
30
0
10
5.5561325897142408
20
-8.9022669294383796
30
0
10
5.583701791540765
20
-8.9311441692991718
30
0
10
5.6116832507229049
20
-8.9597474827567574
30
0
10
5.639953159755545
20
-8.9881602039159283
30
0
10
5.6685210590264585
20
-9.0163655119094752
30
0
10
5.6974764436123397
20
-9.044287081774586
30
0
10
5.7269319969129997
20
-9.0718322209345956
30
0
10
5.7569611689161757
20
-9.0989393700004246
30
0
10
5.7875610591291373
20
-9.1256062452479387
30
0
10
5.8186844210976449
20
-9.1518651612093649
30
0
10
5.8502592031405332
20
-9.1777678700879246
30
0
10
5.8822113797075772
20
-9.2033679044601229
30
0
10
5.914490231081821
20
-9.2287010084753831
30
0
10
5.9470790423940665
20
-9.25377684606344
30
0
10
5.9799810733388146
20
-9.2785898174899017
30
0
10
6.0132110536660335
20
-9.3031256067272476
30
0
10
6.0467852458246067
20
-9.3273688370275973
30
0
10
6.0807102228454575
20
-9.3513117168147062
30
0
10
6.1149794513639089
20
-9.3749566648366347
30
0
10
6.1495791261114334
20
-9.3983117982217319
30
0
10
6.1844916860244989
20
-9.4213882092545305
30
0
10
6.2196999237613149
20
-9.4441967850111812
30
0
10
6.2551916820742806
20
-9.4667445734638029
30
0
10
6.2909608231977234
20
-9.4890340291958282
30
0
10
6.3270047542724743
20
-9.5110649198723554
30
0
10
6.3633228670522453
20
-9.5328355266484603
30
0
10
6.3999147529408571
20
-9.5543440185911273
30
0
10
6.4367781434396534
20
-9.5755900390848705
30
0
10
6.4739085676738028
20
-9.5965749678195493
30
0
10
6.5113003718654756
20
-9.6173011322005646
30
0
10
6.5489473634733928
20
-9.6377713087978041
30
0
10
6.5868435444100975
20
-9.6579881561221192
30
0
10
6.6249839595576177
20
-9.6779535594502377
30
0
10
6.6633648098404503
20
-9.6976685407420007
30
0
10
6.7019830092815313
20
-9.7171335960891909
30
0
10
6.7408358938683541
20
-9.7363489167593595
30
0
10
6.7799208944661968
20
-9.7553146385773211
30
0
10
6.8192351550332786
20
-9.7740311328516025
30
0
10
6.8587754688899523
20
-9.7924990566949113
30
0
10
6.8985384677311989
20
-9.8107192117745399
30
0
10
6.9385207401707785
20
-9.8286924574985139
30
0
10
6.9787189657539948
20
-9.8464196116296634
30
0
10
7.019130069849969
20
-9.863901338616369
30
0
10
7.0597512492270598
20
-9.8811381247500982
30
0
10
7.1005798776918558
20
-9.8981303350534748
30
0
10
7.1416134412955126
20
-9.9148782499230652
30
0
10
7.1828494670508327
20
-9.9313821086115865
30
0
10
7.2242854359329787
20
-9.9476421591780237
30
0
10
7.2659187657552913
20
-9.9636586782804919
30
0
10
7.3077468758381379
20
-9.9794319535998373
30
0
10
7.3497672314253784
20
-9.9949622780093836
30
0
10
7.3919773893045093
20
-10.010249940224591
30
0
10
7.4343750552398058
20
-10.025295220021418
30
0
10
7.4769580877100692
20
-10.040098378974047
30
0
10
7.519724414471197
20
-10.054659645417328
30
0
10
7.5626719648329379
20
-10.068979201315225
30
0
10
7.6057986018456329
20
-10.083057171960071
30
0
10
7.6491020351109906
20
-10.096893611692725
30
0
10
7.6925797979449797
20
-10.110488507342634
30
0
10
7.7362294017406761
20
-10.123841826326089
30
0
10
7.7800484578175668
20
-10.136953559078719
30
0
10
7.8240348073632635
20
-10.149823763002237
30
0
10
7.8681866554597448
20
-10.162452613514716
30
0
10
7.9125026773160556
20
-10.174840436594078
30
0
10
7.9569819446118037
20
-10.186987619511585
30
0
10
7.9926954868119999
20
-10.19651315361488
30
0
10
8.0195537040988238
20
-10.203549312820028
30
0
10
8.0374916429204575
20
-10.208192105416977
30
0
10
8.0464687274876745
20
-10.210501506662785
30
0
0
ARC
5
137
100
AcDbEntity
8
0
100
AcDbCircle
10
1.3877787807814457e-16
20
2.7755575615628914e-16
30
0
40
13.000000000000007
210
-0
220
0
230
1
100
AcDbArc
50
308.24016462100525
51
313.57801719717651
0
SPLINE
5
138
100
AcDbEntity
8
0
100
AcDbSpline
70
4
71
5
72
81
73
75
74
0
42
0.000000001
43
0.0000000001
44
0.0000000001
40
-1
40
-1
40
-1
40
-1
40
-1
40
-1
40
-0.9857142857142841
40
-0.97142857142856986
40
-0.95714285714285563
40
-0.94285714285714139
40
-0.92857142857142716
40
-0.91428571428571292
40
-0.89999999999999869
40
-0.88571428571428445
40
-0.87142857142857022
40
-0.85714285714285599
40
-0.84285714285714175
40
-0.82857142857142752
40
-0.81428571428571328
40
-0.79999999999999905
40
-0.78571428571428481
40
-0.77142857142857058
40
-0.75714285714285634
40
-0.74285714285714211
40
-0.72857142857142787
40
-0.71428571428571364
40
-0.6999999999999994
40
-0.68571428571428517
40
-0.67142857142857093
40
-0.6571428571428567
40
-0.64285714285714246
40
-0.62857142857142823
40
-0.61428571428571399
40
-0.59999999999999976
40
-0.58571428571428552
40
-0.57142857142857129
40
-0.55714285714285705
40
-0.54285714285714282
40
-0.52857142857142858
40
-0.51428571428571435
40
-0.50000000000000011
40
-0.48571428571428582
40
-0.47142857142857153
40
-0.45714285714285724
40
-0.44285714285714295
40
-0.42857142857142866
40
-0.41428571428571437
40
-0.40000000000000008
40
-0.38571428571428579
40
-0.3714285714285715
40
-0.35714285714285721
40
-0.34285714285714292
40
-0.32857142857142863
40
-0.31428571428571433
40
-0.30000000000000004
40
-0.28571428571428575
40
-0.27142857142857146
40
-0.25714285714285717
40
-0.24285714285714291
40
-0.22857142857142862
40
-0.21428571428571433
40
-0.20000000000000004
40
-0.18571428571428575
40
-0.17142857142857146
40
-0.15714285714285717
40
-0.14285714285714288
40
-0.12857142857142859
40
-0.1142857142857143
40
-0.10000000000000001
40
-0.085714285714285715
40
-0.071428571428571425
40
-0.057142857142857141
40
-0.042857142857142858
40
-0.028571428571428571
40
-0.014285714285714285
40
0
40
0
40
0
40
0
40
0
40
0
41
1
41
1
41
1
41
1
41
1
41
1
41
1
41
1
41
1
41
1
41
1
41
1
41
1
41
1
41
1
41
1
41
1
41
1
41
1
41
1
41
1
41
1
41
1
41
1
41
1
41
1
41
1
41
1
41
1
41
1
41
1
41
1
41
1
41
1
41
1
41
1
41
1
41
1
41
1
41
1
41
1
41
1
41
1
41
1
41
1
41
1
41
1
41
1
41
1
41
1
41
1
41
1
41
1
41
1
41
1
41
1
41
1
41
1
41
1
41
1
41
1
41
1
41
1
41
1
41
1
41
1
41
1
41
1
41
1
41
1
41
1
41
1
41
1
41
1
41
1
10
8.9614414280289409
20
-9.4176731485015317
30
0
10
8.9604331054962785
20
-9.4084587756465137
30
0
10
8.9583904046959724
20
-9.3900426809001463
30
0
10
8.9552481862957105
20
-9.3624564916796018
30
0
10
8.9509021753772871
20
-9.3257508369989512
30
0
10
8.9452086929987971
20
-9.2799955801380847
30
0
10
8.9392537875800144
20
-9.2343676604477487
30
0
10
8.9330369436777701
20
-9.1888679416849222
30
0
10
8.9265576500947201
20
-9.1434976887646009
30
0
10
8.9198154777548275
20
-9.0982586533705412
30
0
10
8.912810062609605
20
-9.0531529641724102
30
0
10
8.905541074181393
20
-9.0081829868985519
30
0
10
8.8980081905565562
20
-8.9633511894626121
30
0
10
8.8902110737258493
20
-8.9186600153156927
30
0
10
8.8821493439438637
20
-8.8741117238096283
30
0
10
8.873822573073916
20
-8.8297084123120442
30
0
10
8.8652302863142225
20
-8.7854521045403882
30
0
10
8.8563719627429727
20
-8.741344819150866
30
0
10
8.8472470386781854
20
-8.6973886386411881
30
0
10
8.8378549106878346
20
-8.6535857940788024
30
0
10
8.8281949452897717
20
-8.6099386627193315
30
0
10
8.8182664918582958
20
-8.566449711838537
30
0
10
8.8080688983717277
20
-8.5231214549071996
30
0
10
8.7976015235044578
20
-8.4799564084564878
30
0
10
8.7868637632277711
20
-8.4369570305687205
30
0
10
8.7758550287814234
20
-8.3941257350104479
30
0
10
8.7645746848506647
20
-8.3514649702375383
30
0
10
8.7530219963819764
20
-8.308977283764408
30
0
10
8.741196083092186
20
-8.2666653810833548
30
0
10
8.7290958497304398
20
-8.2245322109690804
30
0
10
8.7167200143075814
20
-8.1825809436990582
30
0
10
8.7040672406722379
20
-8.1408148336300172
30
0
10
8.691136255957149
20
-8.0992371006933368
30
0
10
8.6779259533799742
20
-8.0578508254124035
30
0
10
8.6644355589544464
20
-8.0166587819158952
30
0
10
8.6506645726122642
20
-7.9756634938585638
30
0
10
8.6366124259041896
20
-7.9348675709168957
30
0
10
8.6222781886076127
20
-7.8942739970559392
30
0
10
8.6076603084999519
20
-7.8538863872420333
30
0
10
8.5927562143070766
20
-7.8137093778543463
30
0
10
8.5775624209610797
20
-7.773748527582903
30
0
10
8.5620752988630517
20
-7.7340095707907528
30
0
10
8.5462917396807452
20
-7.6944977724840982
30
0
10
8.5302097414957228
20
-7.655217361680366
30
0
10
8.5138293344526179
20
-7.6161706345398468
30
0
10
8.4971522726988962
20
-7.5773582560687336
30
0
10
8.4801801710216331
20
-7.5387810729393809
30
0
10
8.4629128903885835
20
-7.5004416846840991
30
0
10
8.4453471277052845
20
-7.4623458172713057
30
0
10
8.4274741765810983
20
-7.4245045011743382
30
0
10
8.4092808118945417
20
-7.3869332191965817
30
0
10
8.3907535550646291
20
-7.3496477750585782
30
0
10
8.3718824068891191
20
-7.3126606783233248
30
0
10
8.3526640434445785
20
-7.2759780516315207
30
0
10
8.3331071124400751
20
-7.2395944977131403
30
0
10
8.3132291484981469
20
-7.2034961079869593
30
0
10
8.2930464181917873
20
-7.1676703400137765
30
0
10
8.2725649281610565
20
-7.1321147642033704
30
0
10
8.2517727340671794
20
-7.0968445499710739
30
0
10
8.2306272374163321
20
-7.0619048138574154
30
0
10
8.2090649155822319
20
-7.0273612094592819
30
0
10
8.1870242891011156
20
-6.9932776899691866
30
0
10
8.1644666484846091
20
-6.959696422103157
30
0
10
8.1413938414286733
20
-6.9266206018389287
30
0
10
8.1178772537596906
20
-6.8939862876182243
30
0
10
8.0940246710973689
20
-6.8616951345248296
30
0
10
8.0699243780038188
20
-6.8296694205876296
30
0
10
8.0455943818728137
20
-6.797902096385231
30
0
10
8.0209345771755309
20
-6.7665038495612295
30
0
10
7.9956639700228589
20
-6.7357650851046103
30
0
10
7.9693954585921176
20
-6.7060807731859731
30
0
10
7.94726675582901
20
-6.6834972817998768
30
0
10
7.9299034500199816
20
-6.6673563458799601
30
0
10
7.9179691729147761
20
-6.6569679389248106
30
0
10
7.9119123480044458
20
-6.6518667910739913
30
0
0
LINE
5
139
100
AcDbEntity
8
0
100
AcDbLine
10
7.9119123480044458
20
-6.6518667910739913
30
0
11
6.7330755512055029
21
-5.6590329414111356
31
0
0
ARC
5
140
100
AcDbEntity
8
0
100
AcDbCircle
10
6.894121747215415
20
-5.4678154663971164
30
0
40
0.24999999999999978
210
0
220
0
230
1
100
AcDbArc
50
141.58161949232991
51
229.89541913718631
0
ARC
5
141
100
AcDbEntity
8
0
100
AcDbCircle
10
1.3877787807814457e-16
20
2.7755575615628914e-16
30
0
40
8.5492000000000026
210
-0
220
0
230
1
100
AcDbArc
50
321.58161949232982
51
332.96383505312468
0
ARC
5
142
100
AcDbEntity
8
0
100
AcDbCircle
10
7.8376215681851846
20
-3.9997010880712631
30
0
40
0.25000000000000011
210
0
220
-0
230
1
100
AcDbArc
50
64.650035408268181
51
152.96383505312551
0
LINE
5
143
100
AcDbEntity
8
0
100
AcDbLine
10
7.944658093919478
20
-3.7737737055813754
30
0
11
9.3374780329131468
21
-4.4336432866845197
31
0
0
SPLINE
5
144
100
AcDbEntity
8
0
100
AcDbSpline
70
4
71
5
72
81
73
75
74
0
42
0.000000001
43
0.0000000001
44
0.0000000001
40
0
40
0
40
0
40
0
40
0
40
0
40
0.014285714285714285
40
0.028571428571428571
40
0.042857142857142858
40
0.057142857142857141
40
0.071428571428571425
40
0.085714285714285715
40
0.10000000000000001
40
0.1142857142857143
40
0.12857142857142859
40
0.14285714285714288
40
0.15714285714285717
40
0.17142857142857146
40
0.18571428571428575
40
0.20000000000000004
40
0.21428571428571433
40
0.22857142857142862
40
0.24285714285714291
40
0.25714285714285717
40
0.27142857142857146
40
0.28571428571428575
40
0.30000000000000004
40
0.31428571428571433
40
0.32857142857142863
40
0.34285714285714292
40
0.35714285714285721
40
0.3714285714285715
40
0.38571428571428579
40
0.40000000000000008
40
0.41428571428571437
40
0.42857142857142866
40
0.44285714285714295
40
0.45714285714285724
40
0.47142857142857153
40
0.48571428571428582
40
0.50000000000000011
40
0.51428571428571435
40
0.52857142857142858
40
0.54285714285714282
40
0.55714285714285705
40
0.57142857142857129
40
0.58571428571428552
40
0.59999999999999976
40
0.61428571428571399
40
0.62857142857142823
40
0.64285714285714246
40
0.6571428571428567
40
0.67142857142857093
40
0.68571428571428517
40
0.6999999999999994
40
0.71428571428571364
40
0.72857142857142787
40
0.74285714285714211
40
0.75714285714285634
40
0.77142857142857058
40
0.78571428571428481
40
0.79999999999999905
40
0.81428571428571328
40
0.82857142857142752
40
0.84285714285714175
40
0.85714285714285599
40
0.87142857142857022
40
0.88571428571428445
40
0.89999999999999869
40
0.91428571428571292
40
0.92857142857142716
40
0.94285714285714139
40
0.95714285714285563
40
0.97142857142856986
40
0.9857142857142841
40
1
40
1
40
1
40
1
40
1
40
1
41
1
41
1
41
1
41
1
41
1
41
1
41
1
41
1
41
1
41
1
41
1
41
1
41
1
41
1
41
1
41
1
41
1
41
1
41
1
41
1
41
1
41
1
41
1
41
1
41
1
41
1
41
1
41
1
41
1
41
1
41
1
41
1
41
1
41
1
41
1
41
1
41
1
41
1
41
1
41
1
41
1
41
1
41
1
41
1
41
1
41
1
41
1
41
1
41
1
41
1
41
1
41
1
41
1
41
1
41
1
41
1
41
1
41
1
41
1
41
1
41
1
41
1
41
1
41
1
41
1
41
1
41
1
41
1
41
1
41
1
41
1
41
1
41
1
41
1
41
1
10
9.3374780329131468
20
-4.4336432866845197
30
0
10
9.3446342962101578
20
-4.4370336750124419
30
0
10
9.3590416014361537
20
-4.4435739750984213
30
0
10
9.3809368910922899
20
-4.4526630065024042
30
0
10
9.4106721527699495
20
-4.4634104611836349
30
0
10
9.4485862866687658
20
-4.4749738308297387
30
0
10
9.4870450399150652
20
-4.4851914394014365
30
0
10
9.5258499429131618
20
-4.4945794836406501
30
0
10
9.5648535630735605
20
-4.5035142031716875
30
0
10
9.6039968007137144
20
-4.5121326384953866
30
0
10
9.6432785876711531
20
-4.5204154810747346
30
0
10
9.6827329476050288
20
-4.528250137573699
30
0
10
9.7224045624331019
20
-4.5354977087893076
30
0
10
9.7623219406986088
20
-4.5420666976066029
30
0
10
9.8024814076773126
20
-4.5479567509593579
30
0
10
9.8428606876777849
20
-4.5532205969236035
30
0
10
9.8834271463221572
20
-4.5579407263029399
30
0
10
9.9241474512507093
20
-4.5622021948004603
30
0
10
9.9649982590685209
20
-4.5660624934573804
30
0
10
10.005970733047707
20
-4.5695387888292736
30
0
10
10.047064587972802
20
-4.5726246077959063
30
0
10
10.088284475469182
20
-4.5752999434444837
30
0
10
10.129635763081881
20
-4.5775430678878699
30
0
10
10.171119767952232
20
-4.5793438727862128
30
0
10
10.212732301538047
20
-4.5807079251234821
30
0
10
10.254466138559318
20
-4.5816495171542391
30
0
10
10.29631250265108
20
-4.5821874745297766
30
0
10
10.338262804074008
20
-4.5823402590327058
30
0
10
10.38031062592202
20
-4.5821203724987418
30
0
10
10.422452131826056
20
-4.5815331981815319
30
0
10
10.464685014924449
20
-4.580579942434011
30
0
10
10.507007834250128
20
-4.5792594881145892
30
0
10
10.549419256192998
20
-4.5775705158481665
30
0
10
10.591917179569661
20
-4.5755139520736758
30
0
10
10.634498589157529
20
-4.573093374597514
30
0
10
10.677159986986375
20
-4.5703137980207567
30
0
10
10.719897664685991
20
-4.5671809060832125
30
0
10
10.762708013643598
20
-4.5637001780774389
30
0
10
10.80558788460624
20
-4.5598758789381657
30
0
10
10.848534634101439
20
-4.555710922328009
30
0
10
10.891545934247549
20
-4.5512073939910973
30
0
10
10.934619647341686
20
-4.5463668951058338
30
0
10
10.977753685522631
20
-4.5411909289144168
30
0
10
11.020945846879687
20
-4.5356813518742225
30
0
10
11.064193789044218
20
-4.5298404504455405
30
0
10
11.107495111831797
20
-4.5236707200769901
30
0
10
11.150847410032751
20
-4.5171747280832601
30
0
10
11.194248332418804
20
-4.510354957583556
30
0
10
11.23769565167378
20
-4.5032136298183829
30
0
10
11.281187272478173
20
-4.4957526694235979
30
0
10
11.32472118288363
20
-4.4879738033031282
30
0
10
11.368295419615631
20
-4.4798786264849282
30
0
10
11.411908031614747
20
-4.4714686772390184
30
0
10
11.455557033853243
20
-4.4627455261335376
30
0
10
11.499240403630139
20
-4.4537108019436129
30
0
10
11.542956125471591
20
-4.4443661419025196
30
0
10
11.586702225344304
20
-4.4347131627836038
30
0
10
11.6304768039785
20
-4.4247534283701739
30
0
10
11.674278082598569
20
-4.4144884143822187
30
0
10
11.718104401059918
20
-4.4039194986637185
30
0
10
11.761954139527015
20
-4.3930479936419147
30
0
10
11.805825654401513
20
-4.3818751718943076
30
0
10
11.849717215705118
20
-4.3704022941457232
30
0
10
11.893626926011054
20
-4.3586306443934077
30
0
10
11.937552703092136
20
-4.3465615451476562
30
0
10
11.981492435782908
20
-4.3341963144397919
30
0
10
12.025444109426559
20
-4.3215362356419371
30
0
10
12.069405938948258
20
-4.3085825241855815
30
0
10
12.113376509205036
20
-4.2953362980477445
30
0
10
12.157354881948802
20
-4.2817985476945664
30
0
10
12.201340485601397
20
-4.2679701008072684
30
0
10
12.236534521691533
20
-4.2566752913744228
30
0
10
12.262933126734044
20
-4.2480738366139681
30
0
10
12.280533564324344
20
-4.2422816203803562
30
0
10
12.289334125008404
20
-4.2393710339983288
30
0
0
ARC
5
145
100
AcDbEntity
8
0
100
AcDbCircle
10
1.3877787807814457e-16
20
2.7755575615628914e-16
30
0
40
13.000000000000005
210
-0
220
0
230
1
100
AcDbArc
50
340.967437348278
51
346.3052899244492
0
SPLINE
5
146
100
AcDbEntity
8
0
100
AcDbSpline
70
4
71
5
72
81
73
75
74
0
42
0.000000001
43
0.0000000001
44
0.0000000001
40
-1
40
-1
40
-1
40
-1
40
-1
40
-1
40
-0.9857142857142841
40
-0.97142857142856986
40
-0.95714285714285563
40
-0.94285714285714139
40
-0.92857142857142716
40
-0.91428571428571292
40
-0.89999999999999869
40
-0.88571428571428445
40
-0.87142857142857022
40
-0.85714285714285599
40
-0.84285714285714175
40
-0.82857142857142752
40
-0.81428571428571328
40
-0.79999999999999905
40
-0.78571428571428481
40
-0.77142857142857058
40
-0.75714285714285634
40
-0.74285714285714211
40
-0.72857142857142787
40
-0.71428571428571364
40
-0.6999999999999994
40
-0.68571428571428517
40
-0.67142857142857093
40
-0.6571428571428567
40
-0.64285714285714246
40
-0.62857142857142823
40
-0.61428571428571399
40
-0.59999999999999976
40
-0.58571428571428552
40
-0.57142857142857129
40
-0.55714285714285705
40
-0.54285714285714282
40
-0.52857142857142858
40
-0.51428571428571435
40
-0.50000000000000011
40
-0.48571428571428582
40
-0.47142857142857153
40
-0.45714285714285724
40
-0.44285714285714295
40
-0.42857142857142866
40
-0.41428571428571437
40
-0.40000000000000008
40
-0.38571428571428579
40
-0.3714285714285715
40
-0.35714285714285721
40
-0.34285714285714292
40
-0.32857142857142863
40
-0.31428571428571433
40
-0.30000000000000004
40
-0.28571428571428575
40
-0.27142857142857146
40
-0.25714285714285717
40
-0.24285714285714291
40
-0.22857142857142862
40
-0.21428571428571433
40
-0.20000000000000004
40
-0.18571428571428575
40
-0.17142857142857146
40
-0.15714285714285717
40
-0.14285714285714288
40
-0.12857142857142859
40
-0.1142857142857143
40
-0.10000000000000001
40
-0.085714285714285715
40
-0.071428571428571425
40
-0.057142857142857141
40
-0.042857142857142858
40
-0.028571428571428571
40
-0.014285714285714285
40
0
40
0
40
0
40
0
40
0
40
0
41
1
41
1
41
1
41
1
41
1
41
1
41
1
41
1
41
1
41
1
41
1
41
1
41
1
41
1
41
1
41
1
41
1
41
1
41
1
41
1
41
1
41
1
41
1
41
1
41
1
41
1
41
1
41
1
41
1
41
1
41
1
41
1
41
1
41
1
41
1
41
1
41
1
41
1
41
1
41
1
41
1
41
1
41
1
41
1
41
1
41
1
41
1
41
1
41
1
41
1
41
1
41
1
41
1
41
1
41
1
41
1
41
1
41
1
41
1
41
1
41
1
41
1
41
1
41
1
41
1
41
1
41
1
41
1
41
1
41
1
41
1
41
1
41
1
41
1
41
1
10
12.630422770124552
20
-3.077729787996244
30
0
10
12.624592849159042
20
-3.070523304597454
30
0
10
12.612917927376248
20
-3.0561350672616099
30
0
10
12.595360305155424
20
-3.0346268996470216
30
0
10
12.571859632964788
20
-3.0060977688676518
30
0
10
12.542332811327618
20
-2.9706841263551254
30
0
10
12.51265491030621
20
-2.9355189426533714
30
0
10
12.482825963264455
20
-2.9006032230706218
30
0
10
12.452846224020453
20
-2.8659383080952328
30
0
10
12.422716278644215
20
-2.8315259033133691
30
0
10
12.392436971724372
20
-2.7973679962953857
30
0
10
12.362009304254734
20
-2.7634667558883197
30
0
10
12.331434339679161
20
-2.7298244322728933
30
0
10
12.30071311467559
20
-2.6964432637525748
30
0
10
12.269846531279674
20
-2.6633253563209425
30
0
10
12.238835363242465
20
-2.6304727058640927
30
0
10
12.207680305239542
20
-2.5978872715386951
30
0
10
12.176382010411526
20
-2.565571033178013
30
0
10
12.144941130442231
20
-2.5335260474400889
30
0
10
12.113358363898456
20
-2.5017545174582763
30
0
10
12.081634463102533
20
-2.4702587855935758
30
0
10
12.049770214623274
20
-2.4390412792052505
30
0
10
12.01776642883004
20
-2.4081044652690031
30
0
10
11.985623926744857
20
-2.3774508075523739
30
0
10
11.953343529166077
20
-2.3470827004883787
30
0
10
11.920926045777778
20
-2.317002492974467
30
0
10
11.88837226585437
20
-2.2872125882598846
30
0
10
11.855682948319757
20
-2.257715526850061
30
0
10
11.822858815332181
20
-2.2285140606669684
30
0
10
11.789900539735951
20
-2.1996112625150568
30
0
10
11.756808757034571
20
-2.1710104924971141
30
0
10
11.723584102624061
20
-2.1427152107302088
30
0
10
11.690227246526668
20
-2.1147288141569875
30
0
10
11.656738923114524
20
-2.0870544926503376
30
0
10
11.623119981076144
20
-2.0596949984043804
30
0
10
11.589371364118071
20
-2.0326527248099273
30
0
10
11.555494004928001
20
-2.0059301745934004
30
0
10
11.521488734206184
20
-1.9795303609422488
30
0
10
11.487356200538246
20
-1.9534571641545673
30
0
10
11.453096747446557
20
-1.9277158747364558
30
0
10
11.418710448360159
20
-1.9023130531254984
30
0
10
11.384197350096862
20
-1.8772554856841888
30
0
10
11.349557684238448
20
-1.8525492821088823
30
0
10
11.314792053043391
20
-1.828199082394254
30
0
10
11.279901723268949
20
-1.8042068018958346
30
0
10
11.244888530127369
20
-1.7805720516887202
30
0
10
11.209754289809615
20
-1.7572946710192117
30
0
10
11.174500290767588
20
-1.7343769219195577
30
0
10
11.139126849953659
20
-1.7118254071686052
30
0
10
11.103632606610056
20
-1.6896541132211746
30
0
10
11.068014805692098
20
-1.6678832150807992
30
0
10
11.032270652432299
20
-1.6465332947542572
30
0
10
10.996398498146814
20
-1.6256202819324894
30
0
10
10.960398856722783
20
-1.6051511243572985
30
0
10
10.924276085091535
20
-1.585116606251703
30
0
10
10.888037414769505
20
-1.5654955470399545
30
0
10
10.851689749114106
20
-1.5462686009774396
30
0
10
10.815236827696864
20
-1.5274304767280129
30
0
10
10.778676803505697
20
-1.5090003932129892
30
0
10
10.741998232250527
20
-1.4910393353660023
30
0
10
10.705183170311878
20
-1.4736368774319781
30
0
10
10.668214473579937
20
-1.4568800585675996
30
0
10
10.631082374608681
20
-1.4408252796011305
30
0
10
10.593790155654874
20
-1.4254742302202756
30
0
10
10.556363300880825
20
-1.410734525271709
30
0
10
10.518839316044005
20
-1.3964651584416832
30
0
10
10.48125045117418
20
-1.38255301560959
30
0
10
10.443608043850043
20
-1.3689824308926886
30
0
10
10.405887722199923
20
-1.3559006417971242
30
0
10
10.368010103912548
20
-1.3437038693117465
30
0
10
10.329863075207923
20
-1.3329336665337892
30
0
10
10.299037668587506
20
-1.3258989045726515
30
0
10
10.27570427744379
20
-1.3217075970531444
30
0
10
10.260048127838957
20
-1.3194204703315355
30
0
10
10.252194913741373
20
-1.3184036784512487
30
0
0
LINE
5
147
100
AcDbEntity
8
0
100
AcDbLine
10
10.252194913741373
20
-1.3184036784512485
30
0
11
8.7237277897235526
21
-1.1205059843761069
31
0
0
ARC
5
148
100
AcDbEntity
8
0
100
AcDbCircle
10
8.7558284990625399
20
-0.87257546092259086
30
0
40
0.24999999999999983
210
0
220
0
230
1
100
AcDbArc
50
174.3088922196026
51
262.62269186445889
0
ARC
5
149
100
AcDbEntity
8
0
100
AcDbCircle
10
1.3877787807814457e-16
20
2.7755575615628914e-16
30
0
40
8.5492000000000026
210
-0
220
0
230
1
100
AcDbArc
50
-5.6911077803974131
51
5.6911077803974308
0
ARC
5
150
100
AcDbEntity
8
0
100
AcDbCircle
10
8.7558284990625417
20
0.87257546092258687
30
0
40
0.25000000000000011
210
0
220
0
230
1
100
AcDbArc
50
97.377308135541114
51
185.69110778039692
0
LINE
5
151
100
AcDbEntity
8
0
100
AcDbLine
10
8.7237277897235543
20
1.1205059843761018
30
0
11
10.252194913741373
21
1.3184036784512443
31
0
0
SPLINE
5
152
100
AcDbEntity
8
0
100
AcDbSpline
70
4
71
5
72
81
73
75
74
0
42
0.000000001
43
0.0000000001
44
0.0000000001
40
0
40
0
40
0
40
0
40
0
40
0
40
0.014285714285714285
40
0.028571428571428571
40
0.042857142857142858
40
0.057142857142857141
40
0.071428571428571425
40
0.085714285714285715
40
0.10000000000000001
40
0.1142857142857143
40
0.12857142857142859
40
0.14285714285714288
40
0.15714285714285717
40
0.17142857142857146
40
0.18571428571428575
40
0.20000000000000004
40
0.21428571428571433
40
0.22857142857142862
40
0.24285714285714291
40
0.25714285714285717
40
0.27142857142857146
40
0.28571428571428575
40
0.30000000000000004
40
0.31428571428571433
40
0.32857142857142863
40
0.34285714285714292
40
0.35714285714285721
40
0.3714285714285715
40
0.38571428571428579
40
0.40000000000000008
40
0.41428571428571437
40
0.42857142857142866
40
0.44285714285714295
40
0.45714285714285724
40
0.47142857142857153
40
0.48571428571428582
40
0.50000000000000011
40
0.51428571428571435
40
0.52857142857142858
40
0.54285714285714282
40
0.55714285714285705
40
0.57142857142857129
40
0.58571428571428552
40
0.59999999999999976
40
0.61428571428571399
40
0.62857142857142823
40
0.64285714285714246
40
0.6571428571428567
40
0.67142857142857093
40
0.68571428571428517
40
0.6999999999999994
40
0.71428571428571364
40
0.72857142857142787
40
0.74285714285714211
40
0.75714285714285634
40
0.77142857142857058
40
0.78571428571428481
40
0.79999999999999905
40
0.81428571428571328
40
0.82857142857142752
40
0.84285714285714175
40
0.85714285714285599
40
0.87142857142857022
40
0.88571428571428445
40
0.89999999999999869
40
0.91428571428571292
40
0.92857142857142716
40
0.94285714285714139
40
0.95714285714285563
40
0.97142857142856986
40
0.9857142857142841
40
1
40
1
40
1
40
1
40
1
40
1
41
1
41
1
41
1
41
1
41
1
41
1
41
1
41
1
41
1
41
1
41
1
41
1
41
1
41
1
41
1
41
1
41
1
41
1
41
1
41
1
41
1
41
1
41
1
41
1
41
1
41
1
41
1
41
1
41
1
41
1
41
1
41
1
41
1
41
1
41
1
41
1
41
1
41
1
41
1
41
1
41
1
41
1
41
1
41
1
41
1
41
1
41
1
41
1
41
1
41
1
41
1
41
1
41
1
41
1
41
1
41
1
41
1
41
1
41
1
41
1
41
1
41
1
41
1
41
1
41
1
41
1
41
1
41
1
41
1
41
1
41
1
41
1
41
1
41
1
41
1
10
10.252194913741373
20
1.3184036784512443
30
0
10
10.260048127838955
20
1.3194204703315326
30
0
10
10.27570427744379
20
1.32170759705314
30
0
10
10.299037668587506
20
1.325898904572647
30
0
10
10.329863075207921
20
1.3329336665337865
30
0
10
10.368010103912548
20
1.3437038693117449
30
0
10
10.405887722199923
20
1.3559006417971198
30
0
10
10.443608043850041
20
1.3689824308926828
30
0
10
10.481250451174178
20
1.3825530156095862
30
0
10
10.518839316044001
20
1.3964651584416803
30
0
10
10.556363300880825
20
1.4107345252717067
30
0
10
10.593790155654869
20
1.4254742302202699
30
0
10
10.631082374608683
20
1.4408252796011274
30
0
10
10.668214473579937
20
1.4568800585675961
30
0
10
10.705183170311878
20
1.4736368774319746
30
0
10
10.741998232250527
20
1.4910393353659983
30
0
10
10.778676803505697
20
1.5090003932129843
30
0
10
10.815236827696864
20
1.5274304767280078
30
0
10
10.851689749114106
20
1.5462686009774362
30
0
10
10.888037414769505
20
1.5654955470399496
30
0
10
10.924276085091535
20
1.5851166062516979
30
0
10
10.960398856722781
20
1.6051511243572931
30
0
10
10.996398498146814
20
1.6256202819324861
30
0
10
11.032270652432299
20
1.6465332947542537
30
0
10
11.068014805692094
20
1.6678832150807938
30
0
10
11.103632606610056
20
1.6896541132211702
30
0
10
11.139126849953659
20
1.7118254071686001
30
0
10
11.174500290767588
20
1.7343769219195533
30
0
10
11.209754289809615
20
1.7572946710192077
30
0
10
11.244888530127369
20
1.7805720516887176
30
0
10
11.279901723268948
20
1.8042068018958302
30
0
10
11.314792053043393
20
1.8281990823942511
30
0
10
11.349557684238444
20
1.8525492821088774
30
0
10
11.384197350096862
20
1.8772554856841843
30
0
10
11.418710448360159
20
1.902313053125495
30
0
10
11.453096747446557
20
1.927715874736452
30
0
10
11.487356200538244
20
1.9534571641545639
30
0
10
11.521488734206184
20
1.9795303609422459
30
0
10
11.555494004928001
20
2.005930174593396
30
0
10
11.589371364118071
20
2.0326527248099242
30
0
10
11.623119981076147
20
2.059694998404376
30
0
10
11.656738923114524
20
2.087054492650334
30
0
10
11.690227246526666
20
2.1147288141569822
30
0
10
11.723584102624059
20
2.1427152107302057
30
0
10
11.756808757034571
20
2.1710104924971092
30
0
10
11.789900539735951
20
2.1996112625150515
30
0
10
11.822858815332181
20
2.228514060666964
30
0
10
11.855682948319757
20
2.2577155268500571
30
0
10
11.88837226585437
20
2.2872125882598815
30
0
10
11.920926045777778
20
2.3170024929744635
30
0
10
11.953343529166073
20
2.3470827004883743
30
0
10
11.985623926744857
20
2.3774508075523699
30
0
10
12.017766428830035
20
2.4081044652689982
30
0
10
12.049770214623273
20
2.4390412792052456
30
0
10
12.081634463102532
20
2.4702587855935718
30
0
10
12.113358363898456
20
2.5017545174582709
30
0
10
12.144941130442229
20
2.5335260474400831
30
0
10
12.176382010411526
20
2.5655710331780086
30
0
10
12.207680305239542
20
2.5978872715386911
30
0
10
12.238835363242465
20
2.6304727058640891
30
0
10
12.269846531279676
20
2.663325356320938
30
0
10
12.30071311467559
20
2.6964432637525708
30
0
10
12.331434339679159
20
2.7298244322728875
30
0
10
12.36200930425473
20
2.7634667558883157
30
0
10
12.39243697172437
20
2.7973679962953817
30
0
10
12.422716278644213
20
2.8315259033133651
30
0
10
12.452846224020453
20
2.8659383080952288
30
0
10
12.482825963264453
20
2.9006032230706165
30
0
10
12.51265491030621
20
2.935518942653367
30
0
10
12.542332811327618
20
2.9706841263551209
30
0
10
12.571859632964786
20
3.0060977688676456
30
0
10
12.59536030515542
20
3.0346268996470172
30
0
10
12.612917927376246
20
3.056135067261605
30
0
10
12.624592849159042
20
3.0705233045974492
30
0
10
12.630422770124552
20
3.0777297879962386
30
0
0
ARC
5
153
100
AcDbEntity
8
0
100
AcDbCircle
10
1.3877787807814457e-16
20
2.7755575615628914e-16
30
0
40
13.000000000000007
210
0
220
-0
230
1
100
AcDbArc
50
13.694710075550661
51
19.032562651721943
0
SPLINE
5
154
100
AcDbEntity
8
0
100
AcDbSpline
70
4
71
5
72
81
73
75
74
0
42
0.000000001
43
0.0000000001
44
0.0000000001
40
-1
40
-1
40
-1
40
-1
40
-1
40
-1
40
-0.9857142857142841
40
-0.97142857142856986
40
-0.95714285714285563
40
-0.94285714285714139
40
-0.92857142857142716
40
-0.91428571428571292
40
-0.89999999999999869
40
-0.88571428571428445
40
-0.87142857142857022
40
-0.85714285714285599
40
-0.84285714285714175
40
-0.82857142857142752
40
-0.81428571428571328
40
-0.79999999999999905
40
-0.78571428571428481
40
-0.77142857142857058
40
-0.75714285714285634
40
-0.74285714285714211
40
-0.72857142857142787
40
-0.71428571428571364
40
-0.6999999999999994
40
-0.68571428571428517
40
-0.67142857142857093
40
-0.6571428571428567
40
-0.64285714285714246
40
-0.62857142857142823
40
-0.61428571428571399
40
-0.59999999999999976
40
-0.58571428571428552
40
-0.57142857142857129
40
-0.55714285714285705
40
-0.54285714285714282
40
-0.52857142857142858
40
-0.51428571428571435
40
-0.50000000000000011
40
-0.48571428571428582
40
-0.47142857142857153
40
-0.45714285714285724
40
-0.44285714285714295
40
-0.42857142857142866
40
-0.41428571428571437
40
-0.40000000000000008
40
-0.38571428571428579
40
-0.3714285714285715
40
-0.35714285714285721
40
-0.34285714285714292
40
-0.32857142857142863
40
-0.31428571428571433
40
-0.30000000000000004
40
-0.28571428571428575
40
-0.27142857142857146
40
-0.25714285714285717
40
-0.24285714285714291
40
-0.22857142857142862
40
-0.21428571428571433
40
-0.20000000000000004
40
-0.18571428571428575
40
-0.17142857142857146
40
-0.15714285714285717
40
-0.14285714285714288
40
-0.12857142857142859
40
-0.1142857142857143
40
-0.10000000000000001
40
-0.085714285714285715
40
-0.071428571428571425
40
-0.057142857142857141
40
-0.042857142857142858
40
-0.028571428571428571
40
-0.014285714285714285
40
0
40
0
40
0
40
0
40
0
40
0
41
1
41
1
41
1
41
1
41
1
41
1
41
1
41
1
41
1
41
1
41
1
41
1
41
1
41
1
41
1
41
1
41
1
41
1
41
1
41
1
41
1
41
1
41
1
41
1
41
1
41
1
41
1
41
1
41
1
41
1
41
1
41
1
41
1
41
1
41
1
41
1
41
1
41
1
41
1
41
1
41
1
41
1
41
1
41
1
41
1
41
1
41
1
41
1
41
1
41
1
41
1
41
1
41
1
41
1
41
1
41
1
41
1
41
1
41
1
41
1
41
1
41
1
41
1
41
1
41
1
41
1
41
1
41
1
41
1
41
1
41
1
41
1
41
1
41
1
41
1
10
12.289334125008402
20
4.2393710339983226
30
0
10
12.28053356432434
20
4.2422816203803517
30
0
10
12.26293312673404
20
4.2480738366139628
30
0
10
12.236534521691539
20
4.2566752913744166
30
0
10
12.201340485601399
20
4.2679701008072648
30
0
10
12.157354881948804
20
4.2817985476945619
30
0
10
12.113376509205036
20
4.2953362980477401
30
0
10
12.069405938948258
20
4.3085825241855771
30
0
10
12.025444109426559
20
4.3215362356419318
30
0
10
11.981492435782908
20
4.3341963144397884
30
0
10
11.937552703092136
20
4.3465615451476536
30
0
10
11.893626926011056
20
4.3586306443934042
30
0
10
11.849717215705118
20
4.3704022941457197
30
0
10
11.805825654401513
20
4.3818751718943023
30
0
10
11.761954139527015
20
4.3930479936419093
30
0
10
11.718104401059916
20
4.403919498663714
30
0
10
11.674278082598569
20
4.4144884143822143
30
0
10
11.630476803978503
20
4.4247534283701686
30
0
10
11.586702225344306
20
4.4347131627835985
30
0
10
11.542956125471591
20
4.4443661419025151
30
0
10
11.499240403630138
20
4.4537108019436076
30
0
10
11.455557033853246
20
4.4627455261335331
30
0
10
11.411908031614743
20
4.471468677239014
30
0
10
11.368295419615631
20
4.4798786264849237
30
0
10
11.32472118288363
20
4.4879738033031238
30
0
10
11.281187272478173
20
4.4957526694235925
30
0
10
11.23769565167378
20
4.5032136298183794
30
0
10
11.194248332418804
20
4.5103549575835542
30
0
10
11.150847410032751
20
4.5171747280832548
30
0
10
11.107495111831799
20
4.5236707200769875
30
0
10
11.064193789044218
20
4.5298404504455361
30
0
10
11.020945846879686
20
4.5356813518742189
30
0
10
10.977753685522631
20
4.5411909289144123
30
0
10
10.934619647341691
20
4.5463668951058285
30
0
10
10.891545934247551
20
4.5512073939910938
30
0
10
10.848534634101439
20
4.5557109223280046
30
0
10
10.805587884606243
20
4.5598758789381622
30
0
10
10.762708013643598
20
4.5637001780774353
30
0
10
10.719897664685993
20
4.5671809060832089
30
0
10
10.677159986986375
20
4.5703137980207531
30
0
10
10.634498589157529
20
4.5730933745975104
30
0
10
10.591917179569661
20
4.5755139520736741
30
0
10
10.549419256193
20
4.577570515848163
30
0
10
10.50700783425013
20
4.5792594881145856
30
0
10
10.464685014924447
20
4.5805799424340075
30
0
10
10.422452131826056
20
4.5815331981815284
30
0
10
10.38031062592202
20
4.5821203724987392
30
0
10
10.338262804074009
20
4.5823402590327014
30
0
10
10.29631250265108
20
4.5821874745297739
30
0
10
10.254466138559316
20
4.5816495171542346
30
0
10
10.21273230153805
20
4.5807079251234786
30
0
10
10.171119767952232
20
4.5793438727862092
30
0
10
10.129635763081883
20
4.5775430678878664
30
0
10
10.088284475469182
20
4.5752999434444792
30
0
10
10.047064587972802
20
4.5726246077959019
30
0
10
10.005970733047707
20
4.5695387888292691
30
0
10
9.9649982590685209
20
4.5660624934573759
30
0
10
9.9241474512507111
20
4.5622021948004585
30
0
10
9.8834271463221572
20
4.5579407263029346
30
0
10
9.8428606876777849
20
4.5532205969235982
30
0
10
9.8024814076773126
20
4.5479567509593544
30
0
10
9.7623219406986106
20
4.5420666976066011
30
0
10
9.7224045624331019
20
4.5354977087893031
30
0
10
9.682732947605027
20
4.5282501375736937
30
0
10
9.6432785876711549
20
4.5204154810747301
30
0
10
9.6039968007137162
20
4.512132638495383
30
0
10
9.5648535630735605
20
4.5035142031716848
30
0
10
9.5258499429131636
20
4.4945794836406465
30
0
10
9.4870450399150634
20
4.4851914394014321
30
0
10
9.4485862866687658
20
4.474973830829736
30
0
10
9.4106721527699495
20
4.4634104611836305
30
0
10
9.3809368910922899
20
4.4526630065024007
30
0
10
9.3590416014361537
20
4.4435739750984196
30
0
10
9.3446342962101596
20
4.4370336750124393
30
0
10
9.3374780329131468
20
4.4336432866845144
30
0
0
LINE
5
155
100
AcDbEntity
8
0
100
AcDbLine
10
9.3374780329131468
20
4.4336432866845144
30
0
11
7.9446580939194797
21
3.7737737055813718
31
0
0
ARC
5
156
100
AcDbEntity
8
0
100
AcDbCircle
10
7.8376215681851864
20
3.9997010880712596
30
0
40
0.25000000000000056
210
0
220
0
230
1
100
AcDbArc
50
207.03616494687512
51
295.3499645917318
0
ARC
5
157
100
AcDbEntity
8
0
100
AcDbCircle
10
1.3877787807814457e-16
20
2.7755575615628914e-16
30
0
40
8.5492000000000026
210
0
220
-0
230
1
100
AcDbArc
50
27.036164946875218
51
38.418380507670207
0
ARC
5
158
100
AcDbEntity
8
0
100
AcDbCircle
10
6.894121747215415
20
5.4678154663971164
30
0
40
0.25000000000000017
210
0
220
0
230
1
100
AcDbArc
50
130.10458086281358
51
218.41838050767026
0
LINE
5
159
100
AcDbEntity
8
0
100
AcDbLine
10
6.7330755512055029
20
5.6590329414111364
30
0
11
7.9119123480044484
21
6.6518667910739913
31
0
0
SPLINE
5
160
100
AcDbEntity
8
0
100
AcDbSpline
70
4
71
5
72
81
73
75
74
0
42
0.000000001
43
0.0000000001
44
0.0000000001
40
0
40
0
40
0
40
0
40
0
40
0
40
0.014285714285714285
40
0.028571428571428571
40
0.042857142857142858
40
0.057142857142857141
40
0.071428571428571425
40
0.085714285714285715
40
0.10000000000000001
40
0.1142857142857143
40
0.12857142857142859
40
0.14285714285714288
40
0.15714285714285717
40
0.17142857142857146
40
0.18571428571428575
40
0.20000000000000004
40
0.21428571428571433
40
0.22857142857142862
40
0.24285714285714291
40
0.25714285714285717
40
0.27142857142857146
40
0.28571428571428575
40
0.30000000000000004
40
0.31428571428571433
40
0.32857142857142863
40
0.34285714285714292
40
0.35714285714285721
40
0.3714285714285715
40
0.38571428571428579
40
0.40000000000000008
40
0.41428571428571437
40
0.42857142857142866
40
0.44285714285714295
40
0.45714285714285724
40
0.47142857142857153
40
0.48571428571428582
40
0.50000000000000011
40
0.51428571428571435
40
0.52857142857142858
40
0.54285714285714282
40
0.55714285714285705
40
0.57142857142857129
40
0.58571428571428552
40
0.59999999999999976
40
0.61428571428571399
40
0.62857142857142823
40
0.64285714285714246
40
0.6571428571428567
40
0.67142857142857093
40
0.68571428571428517
40
0.6999999999999994
40
0.71428571428571364
40
0.72857142857142787
40
0.74285714285714211
40
0.75714285714285634
40
0.77142857142857058
40
0.78571428571428481
40
0.79999999999999905
40
0.81428571428571328
40
0.82857142857142752
40
0.84285714285714175
40
0.85714285714285599
40
0.87142857142857022
40
0.88571428571428445
40
0.89999999999999869
40
0.91428571428571292
40
0.92857142857142716
40
0.94285714285714139
40
0.95714285714285563
40
0.97142857142856986
40
0.9857142857142841
40
1
40
1
40
1
40
1
40
1
40
1
41
1
41
1
41
1
41
1
41
1
41
1
41
1
41
1
41
1
41
1
41
1
41
1
41
1
41
1
41
1
41
1
41
1
41
1
41
1
41
1
41
1
41
1
41
1
41
1
41
1
41
1
41
1
41
1
41
1
41
1
41
1
41
1
41
1
41
1
41
1
41
1
41
1
41
1
41
1
41
1
41
1
41
1
41
1
41
1
41
1
41
1
41
1
41
1
41
1
41
1
41
1
41
1
41
1
41
1
41
1
41
1
41
1
41
1
41
1
41
1
41
1
41
1
41
1
41
1
41
1
41
1
41
1
41
1
41
1
41
1
41
1
41
1
41
1
41
1
41
1
10
7.9119123480044484
20
6.6518667910739913
30
0
10
7.9179691729147761
20
6.656967938924808
30
0
10
7.9299034500199825
20
6.6673563458799574
30
0
10
7.9472667558290127
20
6.683497281799875
30
0
10
7.9693954585921194
20
6.7060807731859722
30
0
10
7.9956639700228589
20
6.7357650851046085
30
0
10
8.0209345771755327
20
6.7665038495612269
30
0
10
8.0455943818728155
20
6.797902096385231
30
0
10
8.0699243780038188
20
6.8296694205876278
30
0
10
8.0940246710973689
20
6.8616951345248269
30
0
10
8.1178772537596906
20
6.8939862876182225
30
0
10
8.1413938414286733
20
6.9266206018389243
30
0
10
8.1644666484846109
20
6.9596964221031552
30
0
10
8.1870242891011156
20
6.993277689969184
30
0
10
8.2090649155822337
20
7.027361209459281
30
0
10
8.2306272374163338
20
7.0619048138574136
30
0
10
8.2517727340671811
20
7.0968445499710722
30
0
10
8.2725649281610565
20
7.1321147642033678
30
0
10
8.2930464181917891
20
7.1676703400137756
30
0
10
8.3132291484981486
20
7.2034961079869584
30
0
10
8.3331071124400751
20
7.2395944977131368
30
0
10
8.3526640434445802
20
7.2759780516315198
30
0
10
8.3718824068891209
20
7.3126606783233248
30
0
10
8.3907535550646308
20
7.3496477750585774
30
0
10
8.4092808118945435
20
7.3869332191965809
30
0
10
8.4274741765811001
20
7.4245045011743374
30
0
10
8.4453471277052845
20
7.4623458172713022
30
0
10
8.4629128903885835
20
7.5004416846840973
30
0
10
8.4801801710216367
20
7.53878107293938
30
0
10
8.4971522726988962
20
7.5773582560687309
30
0
10
8.5138293344526197
20
7.6161706345398441
30
0
10
8.5302097414957228
20
7.655217361680366
30
0
10
8.5462917396807452
20
7.6944977724840955
30
0
10
8.5620752988630535
20
7.7340095707907528
30
0
10
8.5775624209610832
20
7.773748527582903
30
0
10
8.5927562143070784
20
7.8137093778543445
30
0
10
8.6076603084999519
20
7.8538863872420306
30
0
10
8.6222781886076145
20
7.8942739970559375
30
0
10
8.6366124259041914
20
7.9348675709168957
30
0
10
8.650664572612266
20
7.975663493858562
30
0
10
8.6644355589544482
20
8.0166587819158934
30
0
10
8.677925953379976
20
8.0578508254124017
30
0
10
8.6911362559571508
20
8.0992371006933332
30
0
10
8.7040672406722397
20
8.1408148336300137
30
0
10
8.7167200143075831
20
8.1825809436990564
30
0
10
8.7290958497304398
20
8.2245322109690768
30
0
10
8.7411960830921878
20
8.266665381083353
30
0
10
8.7530219963819782
20
8.3089772837644063
30
0
10
8.7645746848506665
20
8.3514649702375383
30
0
10
8.775855028781427
20
8.3941257350104443
30
0
10
8.7868637632277728
20
8.4369570305687205
30
0
10
8.7976015235044596
20
8.4799564084564842
30
0
10
8.8080688983717295
20
8.5231214549071979
30
0
10
8.8182664918582976
20
8.5664497118385352
30
0
10
8.8281949452897734
20
8.6099386627193297
30
0
10
8.8378549106878364
20
8.6535857940788024
30
0
10
8.847247038678189
20
8.6973886386411881
30
0
10
8.8563719627429744
20
8.7413448191508643
30
0
10
8.865230286314226
20
8.7854521045403882
30
0
10
8.8738225730739178
20
8.8297084123120442
30
0
10
8.8821493439438655
20
8.8741117238096265
30
0
10
8.8902110737258493
20
8.918660015315691
30
0
10
8.898008190556558
20
8.9633511894626103
30
0
10
8.905541074181393
20
9.0081829868985501
30
0
10
8.9128100626096067
20
9.0531529641724067
30
0
10
8.9198154777548311
20
9.0982586533705394
30
0
10
8.9265576500947237
20
9.1434976887645991
30
0
10
8.9330369436777719
20
9.1888679416849186
30
0
10
8.939253787580018
20
9.2343676604477469
30
0
10
8.9452086929987988
20
9.2799955801380847
30
0
10
8.9509021753772871
20
9.3257508369989512
30
0
10
8.9552481862957123
20
9.3624564916796
30
0
10
8.9583904046959759
20
9.3900426809001445
30
0
10
8.960433105496282
20
9.4084587756465154
30
0
10
8.9614414280289409
20
9.4176731485015317
30
0
0
ARC
5
161
100
AcDbEntity
8
0
100
AcDbCircle
10
1.3877787807814457e-16
20
2.7755575615628914e-16
30
0
40
13.000000000000004
210
0
220
-0
230
1
100
AcDbArc
50
46.421982802823422
51
51.759835378994701
0
SPLINE
5
162
100
AcDbEntity
8
0
100
AcDbSpline
70
4
71
5
72
81
73
75
74
0
42
0.000000001
43
0.0000000001
44
0.0000000001
40
-1
40
-1
40
-1
40
-1
40
-1
40
-1
40
-0.9857142857142841
40
-0.97142857142856986
40
-0.95714285714285563
40
-0.94285714285714139
40
-0.92857142857142716
40
-0.91428571428571292
40
-0.89999999999999869
40
-0.88571428571428445
40
-0.87142857142857022
40
-0.85714285714285599
40
-0.84285714285714175
40
-0.82857142857142752
40
-0.81428571428571328
40
-0.79999999999999905
40
-0.78571428571428481
40
-0.77142857142857058
40
-0.75714285714285634
40
-0.74285714285714211
40
-0.72857142857142787
40
-0.71428571428571364
40
-0.6999999999999994
40
-0.68571428571428517
40
-0.67142857142857093
40
-0.6571428571428567
40
-0.64285714285714246
40
-0.62857142857142823
40
-0.61428571428571399
40
-0.59999999999999976
40
-0.58571428571428552
40
-0.57142857142857129
40
-0.55714285714285705
40
-0.54285714285714282
40
-0.52857142857142858
40
-0.51428571428571435
40
-0.50000000000000011
40
-0.48571428571428582
40
-0.47142857142857153
40
-0.45714285714285724
40
-0.44285714285714295
40
-0.42857142857142866
40
-0.41428571428571437
40
-0.40000000000000008
40
-0.38571428571428579
40
-0.3714285714285715
40
-0.35714285714285721
40
-0.34285714285714292
40
-0.32857142857142863
40
-0.31428571428571433
40
-0.30000000000000004
40
-0.28571428571428575
40
-0.27142857142857146
40
-0.25714285714285717
40
-0.24285714285714291
40
-0.22857142857142862
40
-0.21428571428571433
40
-0.20000000000000004
40
-0.18571428571428575
40
-0.17142857142857146
40
-0.15714285714285717
40
-0.14285714285714288
40
-0.12857142857142859
40
-0.1142857142857143
40
-0.10000000000000001
40
-0.085714285714285715
40
-0.071428571428571425
40
-0.057142857142857141
40
-0.042857142857142858
40
-0.028571428571428571
40
-0.014285714285714285
40
0
40
0
40
0
40
0
40
0
40
0
41
1
41
1
41
1
41
1
41
1
41
1
41
1
41
1
41
1
41
1
41
1
41
1
41
1
41
1
41
1
41
1
41
1
41
1
41
1
41
1
41
1
41
1
41
1
41
1
41
1
41
1
41
1
41
1
41
1
41
1
41
1
41
1
41
1
41
1
41
1
41
1
41
1
41
1
41
1
41
1
41
1
41
1
41
1
41
1
41
1
41
1
41
1
41
1
41
1
41
1
41
1
41
1
41
1
41
1
41
1
41
1
41
1
41
1
41
1
41
1
41
1
41
1
41
1
41
1
41
1
41
1
41
1
41
1
41
1
41
1
41
1
41
1
41
1
41
1
41
1
10
8.0464687274876763
20
10.210501506662784
30
0
10
8.0374916429204575
20
10.208192105416975
30
0
10
8.0195537040988256
20
10.203549312820027
30
0
10
7.9926954868120026
20
10.196513153614879
30
0
10
7.9569819446118064
20
10.186987619511584
30
0
10
7.9125026773160592
20
10.174840436594074
30
0
10
7.8681866554597466
20
10.162452613514715
30
0
10
7.8240348073632671
20
10.149823763002235
30
0
10
7.7800484578175695
20
10.136953559078716
30
0
10
7.7362294017406787
20
10.123841826326089
30
0
10
7.6925797979449806
20
10.110488507342632
30
0
10
7.6491020351109924
20
10.096893611692723
30
0
10
7.6057986018456365
20
10.083057171960071
30
0
10
7.5626719648329388
20
10.068979201315223
30
0
10
7.5197244144712014
20
10.054659645417328
30
0
10
7.4769580877100728
20
10.040098378974045
30
0
10
7.4343750552398085
20
10.025295220021416
30
0
10
7.3919773893045093
20
10.010249940224586
30
0
10
7.3497672314253792
20
9.9949622780093819
30
0
10
7.3077468758381396
20
9.9794319535998373
30
0
10
7.2659187657552931
20
9.9636586782804883
30
0
10
7.2242854359329831
20
9.947642159178022
30
0
10
7.1828494670508336
20
9.9313821086115865
30
0
10
7.1416134412955135
20
9.9148782499230652
30
0
10
7.1005798776918567
20
9.8981303350534731
30
0
10
7.0597512492270624
20
9.8811381247500947
30
0
10
7.0191300698499726
20
9.8639013386163672
30
0
10
6.9787189657539974
20
9.8464196116296598
30
0
10
6.9385207401707802
20
9.8286924574985122
30
0
10
6.8985384677312016
20
9.8107192117745363
30
0
10
6.8587754688899549
20
9.7924990566949095
30
0
10
6.8192351550332813
20
9.7740311328516007
30
0
10
6.7799208944661995
20
9.7553146385773193
30
0
10
6.7408358938683568
20
9.736348916759356
30
0
10
6.7019830092815322
20
9.7171335960891874
30
0
10
6.6633648098404521
20
9.6976685407419971
30
0
10
6.6249839595576194
20
9.6779535594502359
30
0
10
6.5868435444100983
20
9.6579881561221192
30
0
10
6.5489473634733955
20
9.6377713087978023
30
0
10
6.5113003718654792
20
9.6173011322005646
30
0
10
6.4739085676738046
20
9.5965749678195493
30
0
10
6.4367781434396543
20
9.5755900390848669
30
0
10
6.3999147529408598
20
9.5543440185911273
30
0
10
6.3633228670522479
20
9.5328355266484603
30
0
10
6.3270047542724761
20
9.5110649198723536
30
0
10
6.2909608231977234
20
9.4890340291958264
30
0
10
6.2551916820742814
20
9.4667445734637994
30
0
10
6.2196999237613193
20
9.4441967850111812
30
0
10
6.1844916860245016
20
9.4213882092545305
30
0
10
6.1495791261114343
20
9.3983117982217301
30
0
10
6.1149794513639115
20
9.3749566648366329
30
0
10
6.0807102228454575
20
9.3513117168147062
30
0
10
6.0467852458246094
20
9.3273688370275956
30
0
10
6.0132110536660353
20
9.3031256067272459
30
0
10
5.9799810733388163
20
9.2785898174899
30
0
10
5.9470790423940691
20
9.2537768460634382
30
0
10
5.9144902310818228
20
9.2287010084753813
30
0
10
5.882211379707579
20
9.2033679044601229
30
0
10
5.850259203140534
20
9.1777678700879211
30
0
10
5.8186844210976476
20
9.1518651612093631
30
0
10
5.7875610591291409
20
9.125606245247937
30
0
10
5.7569611689161757
20
9.0989393700004211
30
0
10
5.7269319969130006
20
9.0718322209345938
30
0
10
5.6974764436123415
20
9.0442870817745842
30
0
10
5.6685210590264603
20
9.0163655119094734
30
0
10
5.6399531597555459
20
8.9881602039159265
30
0
10
5.6116832507229102
20
8.9597474827567574
30
0
10
5.5837017915407667
20
8.93114416929917
30
0
10
5.5561325897142417
20
8.9022669294383796
30
0
10
5.5293030839281538
20
8.8728789583369512
30
0
10
5.5036593144595525
20
8.8426533044265554
30
0
10
5.4844549332079895
20
8.8175358740263619
30
0
10
5.4709493448005304
20
8.7980522069496274
30
0
10
5.4623651015654744
20
8.7847609791218062
30
0
10
5.4581778521020929
20
8.7780398349244475
30
0
0
LINE
5
163
100
AcDbEntity
8
0
100
AcDbLine
10
5.4581778521020938
20
8.7780398349244475
30
0
11
4.6432155875676466
21
7.4699069082276051
31
0
0
ARC
5
164
100
AcDbEntity
8
0
100
AcDbCircle
10
4.4310251673967604
20
7.6021008021399297
30
0
40
0.25000000000000033
210
0
220
0
230
1
100
AcDbArc
50
239.76343767414809
51
328.07723731900444
0
ARC
5
165
100
AcDbEntity
8
0
100
AcDbCircle
10
1.3877787807814457e-16
20
2.7755575615628914e-16
30
0
40
8.5492000000000026
210
0
220
-0
230
1
100
AcDbArc
50
59.763437674147973
51
71.145653234942927
0
ARC
5
166
100
AcDbEntity
8
0
100
AcDbCircle
10
2.843580052163948
20
8.3270626950285003
30
0
40
0.25000000000000017
210
0
220
0
230
1
100
AcDbArc
50
162.83185359008621
51
251.14565323494261
0
LINE
5
167
100
AcDbEntity
8
0
100
AcDbLine
10
2.604719398818212
20
8.4008569243641897
30
0
11
3.059653514677402
21
9.8734091973755671
31
0
0
SPLINE
5
168
100
AcDbEntity
8
0
100
AcDbSpline
70
4
71
5
72
81
73
75
74
0
42
0.000000001
43
0.0000000001
44
0.0000000001
40
0
40
0
40
0
40
0
40
0
40
0
40
0.014285714285714285
40
0.028571428571428571
40
0.042857142857142858
40
0.057142857142857141
40
0.071428571428571425
40
0.085714285714285715
40
0.10000000000000001
40
0.1142857142857143
40
0.12857142857142859
40
0.14285714285714288
40
0.15714285714285717
40
0.17142857142857146
40
0.18571428571428575
40
0.20000000000000004
40
0.21428571428571433
40
0.22857142857142862
40
0.24285714285714291
40
0.25714285714285717
40
0.27142857142857146
40
0.28571428571428575
40
0.30000000000000004
40
0.31428571428571433
40
0.32857142857142863
40
0.34285714285714292
40
0.35714285714285721
40
0.3714285714285715
40
0.38571428571428579
40
0.40000000000000008
40
0.41428571428571437
40
0.42857142857142866
40
0.44285714285714295
40
0.45714285714285724
40
0.47142857142857153
40
0.48571428571428582
40
0.50000000000000011
40
0.51428571428571435
40
0.52857142857142858
40
0.54285714285714282
40
0.55714285714285705
40
0.57142857142857129
40
0.58571428571428552
40
0.59999999999999976
40
0.61428571428571399
40
0.62857142857142823
40
0.64285714285714246
40
0.6571428571428567
40
0.67142857142857093
40
0.68571428571428517
40
0.6999999999999994
40
0.71428571428571364
40
0.72857142857142787
40
0.74285714285714211
40
0.75714285714285634
40
0.77142857142857058
40
0.78571428571428481
40
0.79999999999999905
40
0.81428571428571328
40
0.82857142857142752
40
0.84285714285714175
40
0.85714285714285599
40
0.87142857142857022
40
0.88571428571428445
40
0.89999999999999869
40
0.91428571428571292
40
0.92857142857142716
40
0.94285714285714139
40
0.95714285714285563
40
0.97142857142856986
40
0.9857142857142841
40
1
40
1
40
1
40
1
40
1
40
1
41
1
41
1
41
1
41
1
41
1
41
1
41
1
41
1
41
1
41
1
41
1
41
1
41
1
41
1
41
1
41
1
41
1
41
1
41
1
41
1
41
1
41
1
41
1
41
1
41
1
41
1
41
1
41
1
41
1
41
1
41
1
41
1
41
1
41
1
41
1
41
1
41
1
41
1
41
1
41
1
41
1
41
1
41
1
41
1
41
1
41
1
41
1
41
1
41
1
41
1
41
1
41
1
41
1
41
1
41
1
41
1
41
1
41
1
41
1
41
1
41
1
41
1
41
1
41
1
41
1
41
1
41
1
41
1
41
1
41
1
41
1
41
1
41
1
41
1
41
1
10
3.059653514677402
20
9.8734091973755671
30
0
10
3.0619909512869281
20
9.8809751227972669
30
0
10
3.0664143072351759
20
9.8961665641786762
30
0
10
3.0722948007984066
20
9.9191324953908317
30
0
10
3.0787010929308609
20
9.9500946172541269
30
0
10
3.0847510203128907
20
9.9892684790185999
30
0
10
3.0893913771134618
20
10.028789894921214
30
0
10
3.0931613511043761
20
10.06853587795645
30
0
10
3.0964543341781923
20
10.108414040667267
30
0
10
3.0994143827228013
20
10.148385387817394
30
0
10
3.1020225367496295
20
10.188446114225389
30
0
10
3.1041625068889105
20
10.228613873536201
30
0
10
3.1056904488313828
20
10.268913125452494
30
0
10
3.1065117395820714
20
10.30935906694452
30
0
10
3.1066265526362336
20
10.349948010444868
30
0
10
3.1060902495355425
20
10.390665410984145
30
0
10
3.104989125802367
20
10.431490706020769
30
0
10
3.1034121150847707
20
10.472403007159009
30
0
10
3.1014194453595256
20
10.513387390434286
30
0
10
3.0990293660489341
20
10.554437552119433
30
0
10
3.0962355105101795
20
10.595552288681013
30
0
10
3.0930174134766797
20
10.636733357117002
30
0
10
3.0893528043385574
20
10.677982978137827
30
0
10
3.0852314901955302
20
10.719301016911462
30
0
10
3.0806595774593988
20
10.760684119793469
30
0
10
3.0756522411747418
20
10.80212716904666
30
0
10
3.0702293643818237
20
10.843624156806339
30
0
10
3.0644104433962878
20
10.88516920814995
30
0
10
3.0582087660241477
20
10.926757750682983
30
0
10
3.0516302066975247
20
10.968386753201958
30
0
10
3.0446762877910705
20
11.010054104007651
30
0
10
3.0373461086050781
20
11.05175821781415
30
0
10
3.0296385529862917
20
11.09349758681892
30
0
10
3.0215548369734058
20
11.135270263071586
30
0
10
3.0130989310668186
20
11.177073771215122
30
0
10
3.0042762966392722
20
11.21890536253574
30
0
10
2.9950930873343982
20
11.260762175289598
30
0
10
2.9855552402326029
20
11.302641417379027
30
0
10
2.975667425043155
20
11.344540578569422
30
0
10
2.9654329019771462
20
11.386457456952467
30
0
10
2.9548540668409364
20
11.428390045173341
30
0
10
2.943932808742078
20
11.470336455159327
30
0
10
2.9326709127555688
20
11.512294834234297
30
0
10
2.9210705298072872
20
11.554263267101259
30
0
10
2.9091342564384659
20
11.596239760630748
30
0
10
2.8968649042795178
20
11.638222294208111
30
0
10
2.8842653568105927
20
11.680208852472218
30
0
10
2.871338406490997
20
11.722197461511616
30
0
10
2.858086568932348
20
11.764186232796483
30
0
10
2.8445120473755452
20
11.806173366238877
30
0
10
2.8306168374772263
20
11.848157116133237
30
0
10
2.816402797433359
20
11.890135766184493
30
0
10
2.8018717275212968
20
11.932107604110831
30
0
10
2.7870254648219634
20
11.974070888604393
30
0
10
2.7718659093922637
20
12.016023849351248
30
0
10
2.7563949686326366
20
12.057964724394752
30
0
10
2.7406145237942328
20
12.099891789885266
30
0
10
2.7245263930375718
20
12.141803388434402
30
0
10
2.7081322902081082
20
12.183697969388781
30
0
10
2.6914338153885642
20
12.225574085589324
30
0
10
2.6744324981741969
20
12.267430320465959
30
0
10
2.6571298320979326
20
12.30926522825647
30
0
10
2.6395273112538216
20
12.35107727601109
30
0
10
2.6216264766018504
20
12.392864768347977
30
0
10
2.6034289335228951
20
12.434625832446851
30
0
10
2.5849362870827886
20
12.476358566206294
30
0
10
2.5661500943063316
20
12.518061158118687
30
0
10
2.5470718122963127
20
12.559732014252624
30
0
10
2.527702749046203
20
12.601369892973981
30
0
10
2.5080440184672437
20
12.642974006542698
30
0
10
2.4880965211601125
20
12.684543906989775
30
0
10
2.4719080430471694
20
12.717772299560362
30
0
10
2.4596372254866372
20
12.742678090224031
30
0
10
2.4513991622333964
20
12.759275062420867
30
0
10
2.4472657510535525
20
12.767571826456287
30
0
0
ARC
5
169
100
AcDbEntity
8
0
100
AcDbCircle
10
1.3877787807814457e-16
20
2.7755575615628914e-16
30
0
40
12.999999999999998
210
0
220
-0
230
1
100
AcDbArc
50
79.149255530096141
51
84.487108106267414
0
SPLINE
5
170
100
AcDbEntity
8
0
100
AcDbSpline
70
4
71
5
72
81
73
75
74
0
42
0.000000001
43
0.0000000001
44
0.0000000001
40
-1
40
-1
40
-1
40
-1
40
-1
40
-1
40
-0.9857142857142841
40
-0.97142857142856986
40
-0.95714285714285563
40
-0.94285714285714139
40
-0.92857142857142716
40
-0.91428571428571292
40
-0.89999999999999869
40
-0.88571428571428445
40
-0.87142857142857022
40
-0.85714285714285599
40
-0.84285714285714175
40
-0.82857142857142752
40
-0.81428571428571328
40
-0.79999999999999905
40
-0.78571428571428481
40
-0.77142857142857058
40
-0.75714285714285634
40
-0.74285714285714211
40
-0.72857142857142787
40
-0.71428571428571364
40
-0.6999999999999994
40
-0.68571428571428517
40
-0.67142857142857093
40
-0.6571428571428567
40
-0.64285714285714246
40
-0.62857142857142823
40
-0.61428571428571399
40
-0.59999999999999976
40
-0.58571428571428552
40
-0.57142857142857129
40
-0.55714285714285705
40
-0.54285714285714282
40
-0.52857142857142858
40
-0.51428571428571435
40
-0.50000000000000011
40
-0.48571428571428582
40
-0.47142857142857153
40
-0.45714285714285724
40
-0.44285714285714295
40
-0.42857142857142866
40
-0.41428571428571437
40
-0.40000000000000008
40
-0.38571428571428579
40
-0.3714285714285715
40
-0.35714285714285721
40
-0.34285714285714292
40
-0.32857142857142863
40
-0.31428571428571433
40
-0.30000000000000004
40
-0.28571428571428575
40
-0.27142857142857146
40
-0.25714285714285717
40
-0.24285714285714291
40
-0.22857142857142862
40
-0.21428571428571433
40
-0.20000000000000004
40
-0.18571428571428575
40
-0.17142857142857146
40
-0.15714285714285717
40
-0.14285714285714288
40
-0.12857142857142859
40
-0.1142857142857143
40
-0.10000000000000001
40
-0.085714285714285715
40
-0.071428571428571425
40
-0.057142857142857141
40
-0.042857142857142858
40
-0.028571428571428571
40
-0.014285714285714285
40
0
40
0
40
0
40
0
40
0
40
0
41
1
41
1
41
1
41
1
41
1
41
1
41
1
41
1
41
1
41
1
41
1
41
1
41
1
41
1
41
1
41
1
41
1
41
1
41
1
41
1
41
1
41
1
41
1
41
1
41
1
41
1
41
1
41
1
41
1
41
1
41
1
41
1
41
1
41
1
41
1
41
1
41
1
41
1
41
1
41
1
41
1
41
1
41
1
41
1
41
1
41
1
41
1
41
1
41
1
41
1
41
1
41
1
41
1
41
1
41
1
41
1
41
1
41
1
41
1
41
1
41
1
41
1
41
1
41
1
41
1
41
1
41
1
41
1
41
1
41
1
41
1
41
1
41
1
41
1
41
1
10
1.2489063626208474
20
12.939869894918004
30
0
10
1.2426029150915174
20
12.933073724622455
30
0
10
1.2300226438710016
20
12.919469977040073
30
0
10
1.211232108557333
20
12.899030134701828
30
0
10
1.1863378575558103
20
12.871708546835979
30
0
10
1.1554867797078228
20
12.837442378862079
30
0
10
1.1249031325562975
20
12.803062028649705
30
0
10
1.0945879064287001
20
12.768567672293425
30
0
10
1.0645423920470654
20
12.733959751799235
30
0
10
1.0347681942306952
20
12.699239090002008
30
0
10
1.0052671601218433
20
12.664406805754433
30
0
10
0.97604129403554563
20
12.629464198520765
30
0
10
0.94709267190507984
20
12.594412641154648
30
0
10
0.91842336171657046
20
12.559253478325925
30
0
10
0.89003531965455074
20
12.523987902602958
30
0
10
0.86193041117362368
20
12.488616963905343
30
0
10
0.83411047662642179
20
12.453141628654922
30
0
10
0.80657738274276358
20
12.417562825103939
30
0
10
0.77933307250259598
20
12.381881490995962
30
0
10
0.75237962719813534
20
12.346098631325956
30
0
10
0.72571925828189165
20
12.310215324111425
30
0
10
0.69935425646569849
20
12.274232693364283
30
0
10
0.67328694828741709
20
12.238151892292745
30
0
10
0.64751965559336933
20
12.201974084192706
30
0
10
0.6220546316329123
20
12.165700422271309
30
0
10
0.59689408616504624
20
12.129332042254184
30
0
10
0.57204028565194909
20
12.092870067400089
30
0
10
0.54749563673422874
20
12.0563156104598
30
0
10
0.52326276054942999
20
12.019669777880353
30
0
10
0.49934460286955362
20
11.982933672963149
30
0
10
0.47574439915481048
20
11.946108402935664
30
0
10
0.45246548387698482
20
11.909195089152503
30
0
10
0.42951112404863157
20
11.872194878251396
30
0
10
0.40688437256228616
20
11.835108951095872
30
0
10
0.3845878328177299
20
11.797938539414082
30
0
10
0.36262373954106586
20
11.760684917922015
30
0
10
0.34099443724926792
20
11.723349365989069
30
0
10
0.31970279023891268
20
11.685933134681438
30
0
10
0.29875254700889364
20
11.648437418207083
30
0
10
0.27814889532725928
20
11.610863309509332
30
0
10
0.25789831840575594
20
11.573211814917435
30
0
10
0.23800752686861992
20
11.53548394657275
30
0
10
0.2184825352667874
20
11.497680803200332
30
0
10
0.19932785065615799
20
11.459803641268634
30
0
10
0.18054518861835178
20
11.421853987224653
30
0
10
0.16213390300922614
20
11.383833602251043
30
0
10
0.14409357624039609
20
11.345744261174929
30
0
10
0.12642626395406475
20
11.307587561254376
30
0
10
0.10913845661528199
20
11.269364755889042
30
0
10
0.092244191972947753
20
11.231076488651766
30
0
10
0.075763831761886946
20
11.192722903742611
30
0
10
0.059718146230610669
20
11.154304163965765
30
0
10
0.044123137560947434
20
11.115820904449993
30
0
10
0.028985609642940835
20
11.07727462261856
30
0
10
0.014295820446953433
20
11.0386683195137
30
0
10
3.1775832869396226e-05
20
11.000006138735232
30
0
10
-0.013826655482336303
20
10.961292160187824
30
0
10
-0.027285243173152951
20
10.922529332343904
30
0
10
-0.040324701081946301
20
10.883718562128998
30
0
10
-0.052883036321482724
20
10.844857200800364
30
0
10
-0.064869032740190735
20
10.805940235122877
30
0
10
-0.076194097253287629
20
10.76696308245255
30
0
10
-0.08680101305911625
20
10.727924101436628
30
0
10
-0.096688574782396453
20
10.688826781390867
30
0
10
-0.10595185400323781
20
10.6496831993074
30
0
10
-0.11473575942024083
20
10.610510411898421
30
0
10
-0.12315684347313338
20
10.571324243117122
30
0
10
-0.1312322260942328
20
10.532133685654415
30
0
10
-0.13881269996393275
20
10.492935569791022
30
0
10
-0.14549477977095659
20
10.453707709339085
30
0
10
-0.15072646919327914
20
10.414416202716684
30
0
10
-0.15330271466304946
20
10.382903403278306
30
0
10
-0.15413067292838978
20
10.359211027160669
30
0
10
-0.15416641759874117
20
10.343388742515012
30
0
10
-0.15405523110955943
20
10.335470758241541
30
0
0
LINE
5
171
100
AcDbEntity
8
0
100
AcDbLine
10
-0.15405523110955943
20
10.335470758241541
30
0
11
-0.13241506044329726
21
8.7943974473516633
31
0
0
ARC
5
172
100
AcDbEntity
8
0
100
AcDbCircle
10
-0.38239041591238704
20
8.7908872254066814
30
0
40
0.25000000000000017
210
-0
220
0
230
1
100
AcDbArc
50
-87.509289598579329
51
0.80451004627668365
0
ARC
5
173
100
AcDbEntity
8
0
100
AcDbCircle
10
1.3877787807814457e-16
20
2.7755575615628914e-16
30
0
40
8.5492000000000008
210
0
220
0
230
1
100
AcDbArc
50
92.490710401420699
51
103.87292596221562
0
ARC
5
174
100
AcDbEntity
8
0
100
AcDbCircle
10
-2.1097782176730213
20
8.5425263542018115
30
0
40
0.25000000000000006
210
0
220
0
230
1
100
AcDbArc
50
195.55912631735913
51
283.87292596221602
0
LINE
5
175
100
AcDbEntity
8
0
100
AcDbLine
10
-2.350616758626038
20
8.4754681914501973
30
0
11
-2.7640236910810341
21
9.9602139456861583
31
0
0
SPLINE
5
176
100
AcDbEntity
8
0
100
AcDbSpline
70
4
71
5
72
81
73
75
74
0
42
0.000000001
43
0.0000000001
44
0.0000000001
40
0
40
0
40
0
40
0
40
0
40
0
40
0.014285714285714285
40
0.028571428571428571
40
0.042857142857142858
40
0.057142857142857141
40
0.071428571428571425
40
0.085714285714285715
40
0.10000000000000001
40
0.1142857142857143
40
0.12857142857142859
40
0.14285714285714288
40
0.15714285714285717
40
0.17142857142857146
40
0.18571428571428575
40
0.20000000000000004
40
0.21428571428571433
40
0.22857142857142862
40
0.24285714285714291
40
0.25714285714285717
40
0.27142857142857146
40
0.28571428571428575
40
0.30000000000000004
40
0.31428571428571433
40
0.32857142857142863
40
0.34285714285714292
40
0.35714285714285721
40
0.3714285714285715
40
0.38571428571428579
40
0.40000000000000008
40
0.41428571428571437
40
0.42857142857142866
40
0.44285714285714295
40
0.45714285714285724
40
0.47142857142857153
40
0.48571428571428582
40
0.50000000000000011
40
0.51428571428571435
40
0.52857142857142858
40
0.54285714285714282
40
0.55714285714285705
40
0.57142857142857129
40
0.58571428571428552
40
0.59999999999999976
40
0.61428571428571399
40
0.62857142857142823
40
0.64285714285714246
40
0.6571428571428567
40
0.67142857142857093
40
0.68571428571428517
40
0.6999999999999994
40
0.71428571428571364
40
0.72857142857142787
40
0.74285714285714211
40
0.75714285714285634
40
0.77142857142857058
40
0.78571428571428481
40
0.79999999999999905
40
0.81428571428571328
40
0.82857142857142752
40
0.84285714285714175
40
0.85714285714285599
40
0.87142857142857022
40
0.88571428571428445
40
0.89999999999999869
40
0.91428571428571292
40
0.92857142857142716
40
0.94285714285714139
40
0.95714285714285563
40
0.97142857142856986
40
0.9857142857142841
40
1
40
1
40
1
40
1
40
1
40
1
41
1
41
1
41
1
41
1
41
1
41
1
41
1
41
1
41
1
41
1
41
1
41
1
41
1
41
1
41
1
41
1
41
1
41
1
41
1
41
1
41
1
41
1
41
1
41
1
41
1
41
1
41
1
41
1
41
1
41
1
41
1
41
1
41
1
41
1
41
1
41
1
41
1
41
1
41
1
41
1
41
1
41
1
41
1
41
1
41
1
41
1
41
1
41
1
41
1
41
1
41
1
41
1
41
1
41
1
41
1
41
1
41
1
41
1
41
1
41
1
41
1
41
1
41
1
41
1
41
1
41
1
41
1
41
1
41
1
41
1
41
1
41
1
41
1
41
1
41
1
10
-2.7640236910810341
20
9.9602139456861583
30
0
10
-2.7661477623802981
20
9.9678425208156245
30
0
10
-2.7706397118486374
20
9.9830138213222881
30
0
10
-2.7781090456879487
20
10.005513226936342
30
0
10
-2.7894591166735037
20
10.035023724353138
30
0
10
-2.805548582537237
20
10.071249711642507
30
0
10
-2.8230117565857533
20
10.107006008687023
30
0
10
-2.8413285534059578
20
10.142480659151495
30
0
10
-2.8601180822481602
20
10.177808625475681
30
0
10
-2.8792380727507028
20
10.213034985542613
30
0
10
-2.8987024178345502
20
10.248146287686238
30
0
10
-2.9186184906238828
20
10.283094512317801
30
0
10
-2.9391205245656913
20
10.317822468143641
30
0
10
-2.9602963376912039
20
10.352291782615309
30
0
10
-2.9821437903974601
20
10.386499447352318
30
0
10
-3.0046084459878077
20
10.420463157056929
30
0
10
-3.0276065910998913
20
10.454212268300139
30
0
10
-3.0510521168687528
20
10.487777289805443
30
0
10
-3.0748862877917373
20
10.521178228437497
30
0
10
-3.0990903434256616
20
10.554419647546158
30
0
10
-3.1236689890519824
20
10.587497092587682
30
0
10
-3.1486403910533372
20
10.620400977284381
30
0
10
-3.1740244852656603
20
10.653121129416007
30
0
10
-3.1998297736066288
20
10.685651924856705
30
0
10
-3.2260493059186723
20
10.717993843716711
30
0
10
-3.252667549284312
20
10.750150784930044
30
0
10
-3.2796645289288007
20
10.782128443942442
30
0
10
-3.3070206672847924
20
10.813932418958579
30
0
10
-3.3347223139154289
20
10.84556604736572
30
0
10
-3.3627628881416101
20
10.87702995511102
30
0
10
-3.3911399675894867
20
10.908323188777922
30
0
10
-3.4198534529055955
20
10.939443927784023
30
0
10
-3.44890346787821
20
10.970390300247104
30
0
10
-3.4782879363690049
20
11.001161324887187
30
0
10
-3.5080021799014411
20
11.031757065916011
30
0
10
-3.5380401180095418
20
11.062178163609406
30
0
10
-3.5683950267433264
20
11.092425537426189
30
0
10
-3.599060401990966
20
11.122500048332336
30
0
10
-3.6300309582077492
20
11.152402109219546
30
0
10
-3.6613027622880678
20
11.182131630327863
30
0
10
-3.6928727134934034
20
11.211688218233656
30
0
10
-3.7247382018361814
20
11.241071305917743
30
0
10
-3.7568967239834121
20
11.270280299894184
30
0
10
-3.7893454349733768
20
11.29931475179095
30
0
10
-3.8220810728894392
20
11.328174388677006
30
0
10
-3.8551001800108242
20
11.3568590307853
30
0
10
-3.888399241013186
20
11.385368541613232
30
0
10
-3.9219748395531622
20
11.413702770318299
30
0
10
-3.9558238383472877
20
11.441861488210437
30
0
10
-3.989943410710354
20
11.469844372121266
30
0
10
-4.0243309339894831
20
11.497651032403251
30
0
10
-4.0589839170715845
20
11.525281029833694
30
0
10
-4.0938999197375319
20
11.552733897252882
30
0
10
-4.1290764551144097
20
11.580009162980362
30
0
10
-4.1645109676686545
20
11.607106364981606
30
0
10
-4.2002009002072356
20
11.634025052222889
30
0
10
-4.236143738137498
20
11.660764791590781
30
0
10
-4.272337055873666
20
11.687325171773235
30
0
10
-4.3087785732906827
20
11.713705814852414
30
0
10
-4.3454661619200436
20
11.739906368470667
30
0
10
-4.3823977691287341
20
11.765926467895053
30
0
10
-4.4195713568388282
20
11.791765704337854
30
0
10
-4.4569848393632219
20
11.817423595967895
30
0
10
-4.4946360037712525
20
11.842899549645075
30
0
10
-4.532522487007502
20
11.868192857787154
30
0
10
-4.5706419104510019
20
11.893302788008693
30
0
10
-4.6089919848741783
20
11.91822865816367
30
0
10
-4.6475706227397833
20
11.942969915120901
30
0
10
-4.6863760524156017
20
11.967526221505949
30
0
10
-4.7254069109354315
20
11.991897516855591
30
0
10
-4.7646621984754525
20
12.016083911215816
30
0
10
-4.7962454382012236
20
12.03528526181578
30
0
10
-4.820033393848532
20
12.049603241362774
30
0
10
-4.8359366942797921
20
12.059111669606178
30
0
10
-4.8438995103278257
20
12.063856660862891
30
0
0
ARC
5
177
100
AcDbEntity
8
0
100
AcDbCircle
10
1.3877787807814457e-16
20
2.7755575615628914e-16
30
0
40
13.000000000000004
210
0
220
0
230
1
100
AcDbArc
50
111.87652825736885
51
117.21438083354012
0
SPLINE
5
178
100
AcDbEntity
8
0
100
AcDbSpline
70
4
71
5
72
81
73
75
74
0
42
0.000000001
43
0.0000000001
44
0.0000000001
40
-1
40
-1
40
-1
40
-1
40
-1
40
-1
40
-0.9857142857142841
40
-0.97142857142856986
40
-0.95714285714285563
40
-0.94285714285714139
40
-0.92857142857142716
40
-0.91428571428571292
40
-0.89999999999999869
40
-0.88571428571428445
40
-0.87142857142857022
40
-0.85714285714285599
40
-0.84285714285714175
40
-0.82857142857142752
40
-0.81428571428571328
40
-0.79999999999999905
40
-0.78571428571428481
40
-0.77142857142857058
40
-0.75714285714285634
40
-0.74285714285714211
40
-0.72857142857142787
40
-0.71428571428571364
40
-0.6999999999999994
40
-0.68571428571428517
40
-0.67142857142857093
40
-0.6571428571428567
40
-0.64285714285714246
40
-0.62857142857142823
40
-0.61428571428571399
40
-0.59999999999999976
40
-0.58571428571428552
40
-0.57142857142857129
40
-0.55714285714285705
40
-0.54285714285714282
40
-0.52857142857142858
40
-0.51428571428571435
40
-0.50000000000000011
40
-0.48571428571428582
40
-0.47142857142857153
40
-0.45714285714285724
40
-0.44285714285714295
40
-0.42857142857142866
40
-0.41428571428571437
40
-0.40000000000000008
40
-0.38571428571428579
40
-0.3714285714285715
40
-0.35714285714285721
40
-0.34285714285714292
40
-0.32857142857142863
40
-0.31428571428571433
40
-0.30000000000000004
40
-0.28571428571428575
40
-0.27142857142857146
40
-0.25714285714285717
40
-0.24285714285714291
40
-0.22857142857142862
40
-0.21428571428571433
40
-0.20000000000000004
40
-0.18571428571428575
40
-0.17142857142857146
40
-0.15714285714285717
40
-0.14285714285714288
40
-0.12857142857142859
40
-0.1142857142857143
40
-0.10000000000000001
40
-0.085714285714285715
40
-0.071428571428571425
40
-0.057142857142857141
40
-0.042857142857142858
40
-0.028571428571428571
40
-0.014285714285714285
40
0
40
0
40
0
40
0
40
0
40
0
41
1
41
1
41
1
41
1
41
1
41
1
41
1
41
1
41
1
41
1
41
1
41
1
41
1
41
1
41
1
41
1
41
1
41
1
41
1
41
1
41
1
41
1
41
1
41
1
41
1
41
1
41
1
41
1
41
1
41
1
41
1
41
1
41
1
41
1
41
1
41
1
41
1
41
1
41
1
41
1
41
1
41
1
41
1
41
1
41
1
41
1
41
1
41
1
41
1
41
1
41
1
41
1
41
1
41
1
41
1
41
1
41
1
41
1
41
1
41
1
41
1
41
1
41
1
41
1
41
1
41
1
41
1
41
1
41
1
41
1
41
1
41
1
41
1
41
1
41
1
10
-5.9451749480274154
20
11.56092102028845
30
0
10
-5.9468034584663272
20
11.551795816992552
30
0
10
-5.950031914861162
20
11.533550208162655
30
0
10
-5.954788906007165
20
11.506196188212687
30
0
10
-5.960960117011405
20
11.469752957686573
30
0
10
-5.9683880061781913
20
11.424247070874824
30
0
10
-5.975529186748048
20
11.378789711801915
30
0
10
-5.9823829208084014
20
11.333381564019485
30
0
10
-5.9889483615012651
20
11.288023697183645
30
0
10
-5.9952246036248482
20
11.24271767113796
30
0
10
-6.0012106981616364
20
11.197465425761715
30
0
10
-6.0069056615179486
20
11.152269137848316
30
0
10
-6.0123084895282863
20
11.107131084650009
30
0
10
-6.0174181694754285
20
11.062053515412751
30
0
10
-6.0222337004633566
20
11.017038490982108
30
0
10
-6.026754080801183
20
10.972087903147541
30
0
10
-6.0309782847728481
20
10.927203559884592
30
0
10
-6.0349052438363548
20
10.882387251319079
30
0
10
-6.0385338304353997
20
10.837640816785354
30
0
10
-6.0418628370168594
20
10.792966226970513
30
0
10
-6.0448909860087552
20
10.748365584362077
30
0
10
-6.0476169580283923
20
10.703841072991358
30
0
10
-6.0500394193390017
20
10.659394920820173
30
0
10
-6.0521570456044049
20
10.615029361760195
30
0
10
-6.0539685647414796
20
10.570746584149591
30
0
10
-6.0554727318022863
20
10.526548738107465
30
0
10
-6.0566682473970479
20
10.482437993921174
30
0
10
-6.057553688529338
20
10.438416588824396
30
0
10
-6.0581274483483671
20
10.394486870713544
30
0
10
-6.0583876452028047
20
10.35065136034941
30
0
10
-6.0583321558626864
20
10.306912738412869
30
0
10
-6.0579587814419114
20
10.263273750998996
30
0
10
-6.0572653934737888
20
10.219737129001169
30
0
10
-6.0562500621247084
20
10.176305516343325
30
0
10
-6.0549112631979218
20
10.132981356725299
30
0
10
-6.0532478058856967
20
10.089766930690573
30
0
10
-6.0512584095341628
20
10.046664582054749
30
0
10
-6.0489413409211537
20
10.003676911837323
30
0
10
-6.0462940922462982
20
9.9608069512614641
30
0
10
-6.0433128901711797
20
9.918058424488768
30
0
10
-6.0399928247336776
20
9.8754356831861738
30
0
10
-6.0363287978023727
20
9.8329432068585412
30
0
10
-6.0323163436306579
20
9.7905851715239418
30
0
10
-6.0279523499399659
20
9.7483650708892871
30
0
10
-6.0232361987507499
20
9.7062851165969555
30
0
10
-6.0181693858012819
20
9.6643464409161801
30
0
10
-6.0127532219332513
20
9.6225503111612181
30
0
10
-6.0069868413733065
20
9.5808991823951501
30
0
10
-6.0008654616337997
20
9.5393976180551867
30
0
10
-5.9943776213506306
20
9.4980537489293031
30
0
10
-5.9875062691028766
20
9.456878704711265
30
0
10
-5.9802340198641959
20
9.4158838516048089
30
0
10
-5.972547755119118
20
9.3750783753469111
30
0
10
-5.9644425606392524
20
9.3344672141108624
30
0
10
-5.9559282544273735
20
9.2940476255951801
30
0
10
-5.9470255793307469
20
9.2538112046879561
30
0
10
-5.9377536766253307
20
9.2137504998300912
30
0
10
-5.9281189941347225
20
9.1738648721129081
30
0
10
-5.9181057976316298
20
9.1341655113747287
30
0
10
-5.9076605033622167
20
9.0946837052366032
30
0
10
-5.8967036650571893
20
9.0554645514715162
30
0
10
-5.8851582759065968
20
9.016552091951807
30
0
10
-5.8729753146916108
20
8.9779758796220879
30
0
10
-5.8601556538525443
20
8.9397395015566445
30
0
10
-5.8467858020069308
20
8.901801717990983
30
0
10
-5.8329968856642358
20
8.8640985343872316
30
0
10
-5.8188955100511253
20
8.8265802496956294
30
0
10
-5.8045009391869105
20
8.7892451733149652
30
0
10
-5.7896859382072252
20
8.752171306274942
30
0
10
-5.7740990789097744
20
8.7155581249951695
30
0
10
-5.7572576638595816
20
8.6796755413928555
30
0
10
-5.7423878338137877
20
8.6517724640791762
30
0
10
-5.7302752910378372
20
8.6313935409356581
30
0
10
-5.721751188463208
20
8.6180636630522383
30
0
10
-5.7173768669461698
20
8.611462742763683
30
0
0
LINE
5
179
100
AcDbEntity
8
0
100
AcDbLine
10
-5.7173768669461698
20
8.611462742763683
30
0
11
-4.8660048623636003
21
7.3267289351846143
31
0
0
ARC
5
180
100
AcDbEntity
8
0
100
AcDbCircle
10
-5.0743997440109165
20
7.1886290680478151
30
0
40
0.25000000000000033
210
-0
220
0
230
1
100
AcDbArc
50
-54.782016871306986
51
33.53178277354997
0
ARC
5
181
100
AcDbEntity
8
0
100
AcDbCircle
10
1.3877787807814457e-16
20
2.7755575615628914e-16
30
0
40
8.5492000000000026
210
0
220
0
230
1
100
AcDbArc
50
125.21798312869342
51
136.60019868948842
0
ARC
5
182
100
AcDbEntity
8
0
100
AcDbCircle
10
-6.3932968103793586
20
6.0457982545229836
30
0
40
0.25000000000000033
210
0
220
0
230
1
100
AcDbArc
50
228.28639904463182
51
316.60019868948871
0
LINE
5
183
100
AcDbEntity
8
0
100
AcDbLine
10
-6.5596487038708879
20
5.8591781925473674
30
0
11
-7.7101429045794125
21
6.8847211417501857
31
0
0
SPLINE
5
184
100
AcDbEntity
8
0
100
AcDbSpline
70
4
71
5
72
81
73
75
74
0
42
0.000000001
43
0.0000000001
44
0.0000000001
40
0
40
0
40
0
40
0
40
0
40
0
40
0.014285714285714285
40
0.028571428571428571
40
0.042857142857142858
40
0.057142857142857141
40
0.071428571428571425
40
0.085714285714285715
40
0.10000000000000001
40
0.1142857142857143
40
0.12857142857142859
40
0.14285714285714288
40
0.15714285714285717
40
0.17142857142857146
40
0.18571428571428575
40
0.20000000000000004
40
0.21428571428571433
40
0.22857142857142862
40
0.24285714285714291
40
0.25714285714285717
40
0.27142857142857146
40
0.28571428571428575
40
0.30000000000000004
40
0.31428571428571433
40
0.32857142857142863
40
0.34285714285714292
40
0.35714285714285721
40
0.3714285714285715
40
0.38571428571428579
40
0.40000000000000008
40
0.41428571428571437
40
0.42857142857142866
40
0.44285714285714295
40
0.45714285714285724
40
0.47142857142857153
40
0.48571428571428582
40
0.50000000000000011
40
0.51428571428571435
40
0.52857142857142858
40
0.54285714285714282
40
0.55714285714285705
40
0.57142857142857129
40
0.58571428571428552
40
0.59999999999999976
40
0.61428571428571399
40
0.62857142857142823
40
0.64285714285714246
40
0.6571428571428567
40
0.67142857142857093
40
0.68571428571428517
40
0.6999999999999994
40
0.71428571428571364
40
0.72857142857142787
40
0.74285714285714211
40
0.75714285714285634
40
0.77142857142857058
40
0.78571428571428481
40
0.79999999999999905
40
0.81428571428571328
40
0.82857142857142752
40
0.84285714285714175
40
0.85714285714285599
40
0.87142857142857022
40
0.88571428571428445
40
0.89999999999999869
40
0.91428571428571292
40
0.92857142857142716
40
0.94285714285714139
40
0.95714285714285563
40
0.97142857142856986
40
0.9857142857142841
40
1
40
1
40
1
40
1
40
1
40
1
41
1
41
1
41
1
41
1
41
1
41
1
41
1
41
1
41
1
41
1
41
1
41
1
41
1
41
1
41
1
41
1
41
1
41
1
41
1
41
1
41
1
41
1
41
1
41
1
41
1
41
1
41
1
41
1
41
1
41
1
41
1
41
1
41
1
41
1
41
1
41
1
41
1
41
1
41
1
41
1
41
1
41
1
41
1
41
1
41
1
41
1
41
1
41
1
41
1
41
1
41
1
41
1
41
1
41
1
41
1
41
1
41
1
41
1
41
1
41
1
41
1
41
1
41
1
41
1
41
1
41
1
41
1
41
1
41
1
41
1
41
1
41
1
41
1
41
1
41
1
10
-7.7101429045794125
20
6.8847211417501857
30
0
10
-7.7160541061579195
20
6.8899903478847495
30
0
10
-7.7280351988252471
20
6.9003247268010925
30
0
10
-7.7464828993489103
20
6.915214204507782
30
0
10
-7.7719857661103307
20
6.9339037030594586
30
0
10
-7.8051063334908228
20
6.9556803208699431
30
0
10
-7.8391286040169117
20
6.9763191273866445
30
0
10
-7.8737167180781276
20
6.9962594944097916
30
0
10
-7.9086232161894152
20
7.0158208846549002
30
0
10
-7.9437527838499484
20
7.0351181372149512
30
0
10
-7.9791098360088402
20
7.0541324247482091
30
0
10
-8.0147587393364201
20
7.0727653003123612
30
0
10
-8.0507814982464332
20
7.0908960794490508
30
0
10
-8.0872312442019396
20
7.1084450031041468
30
0
10
-8.1241045508011052
20
7.1254106972236269
30
0
10
-8.1613651894588468
20
7.1418374782384593
30
0
10
-8.198958607373882
20
7.1577953013283651
30
0
10
-8.2368288594205588
20
7.1733563860318998
30
0
10
-8.2749373506774422
20
7.1885693180048165
30
0
10
-8.313270765988614
20
7.2034480788426318
30
0
10
-8.3518306553805584
20
7.217986377277481
30
0
10
-8.3906271186538302
20
7.2321663273314218
30
0
10
-8.4296714273833793
20
7.2459685934616047
30
0
10
-8.4689676932054869
20
7.2593838478685626
30
0
10
-8.508510328842732
20
7.2724162519855948
30
0
10
-8.5482883750962841
20
7.2850774835339234
30
0
10
-8.5882881073067612
20
7.2973831330059467
30
0
10
-8.6284960823944186
20
7.3093484943431353
30
0
10
-8.6689026212088081
20
7.3209837551176582
30
0
10
-8.7095025261429644
20
7.3322929996934993
30
0
10
-8.7502932439104235
20
7.3432767356397886
30
0
10
-8.7912737066485764
20
7.353933485099688
30
0
10
-8.8324430064788135
20
7.3642616064206727
30
0
10
-8.8737988663224225
20
7.3742613965426163
30
0
10
-8.9153373851099715
20
7.3839354388592504
30
0
10
-8.9570537937872317
20
7.393287559352979
30
0
10
-8.9989429329044874
20
7.4023221667635912
30
0
10
-9.0409997963280304
20
7.4110435017700871
30
0
10
-9.0832201608008152
20
7.419454769300291
30
0
10
-9.1256006690559524
20
7.4275580202407463
30
0
10
-9.1681384998853375
20
7.4353546000082442
30
0
10
-9.2108311510739842
20
7.4428454426617119
30
0
10
-9.2536761958214502
20
7.4500314023329937
30
0
10
-9.2966709983854159
20
7.4569136399299696
30
0
10
-9.3398126671093351
20
7.4634936893737169
30
0
10
-9.3830981959839814
20
7.4697732688195568
30
0
10
-9.4265245539314524
20
7.4757541639620246
30
0
10
-9.4700887853892102
20
7.481438094918996
30
0
10
-9.5137881274672722
20
7.486826565447644
30
0
10
-9.5576200274887064
20
7.4919208319028296
30
0
10
-9.6015820684781534
20
7.4967219844053865
30
0
10
-9.6456719173161982
20
7.5012310002550775
30
0
10
-9.6898872685942798
20
7.5054488057342166
30
0
10
-9.7342257752120673
20
7.5093763485449605
30
0
10
-9.7786850375231857
20
7.5130146216248752
30
0
10
-9.823262660432734
20
7.5163646280631919
30
0
10
-9.8679562943719503
20
7.5194273629931239
30
0
10
-9.9127636764361569
20
7.5222037917676392
30
0
10
-9.9576826841442827
20
7.5246948291907003
30
0
10
-10.002711336415754
20
7.5269013295771376
30
0
10
-10.047847709276269
20
7.5288240958312658
30
0
10
-10.093089867178263
20
7.5304638859270856
30
0
10
-10.138435795032478
20
7.5318214221300108
30
0
10
-10.183883310527435
20
7.5328974018594721
30
0
10
-10.229430043186568
20
7.5336925074236172
30
0
10
-10.275073596029126
20
7.5342074086801993
30
0
10
-10.320811674438339
20
7.5344427694213367
30
0
10
-10.366642223220829
20
7.5343992529313075
30
0
10
-10.412563569586348
20
7.5340775332093646
30
0
10
-10.458574534245873
20
7.5334782962657689
30
0
10
-10.504674335589431
20
7.5326021752226646
30
0
10
-10.541624881471607
20
7.5316801907067781
30
0
10
-10.569377467365337
20
7.5308645017969313
30
0
10
-10.587896819455043
20
7.5302655273029675
30
0
10
-10.597160902538587
20
7.5299522445834741
30
0
0
ARC
5
185
100
AcDbEntity
8
0
100
AcDbCircle
10
1.3877787807814457e-16
20
2.7755575615628914e-16
30
0
40
13.000000000000004
210
0
220
0
230
1
100
AcDbArc
50
144.60380098464162
51
149.94165356081288
0
SPLINE
5
186
100
AcDbEntity
8
0
100
AcDbSpline
70
4
71
5
72
81
73
75
74
0
42
0.000000001
43
0.0000000001
44
0.0000000001
40
-1
40
-1
40
-1
40
-1
40
-1
40
-1
40
-0.9857142857142841
40
-0.97142857142856986
40
-0.95714285714285563
40
-0.94285714285714139
40
-0.92857142857142716
40
-0.91428571428571292
40
-0.89999999999999869
40
-0.88571428571428445
40
-0.87142857142857022
40
-0.85714285714285599
40
-0.84285714285714175
40
-0.82857142857142752
40
-0.81428571428571328
40
-0.79999999999999905
40
-0.78571428571428481
40
-0.77142857142857058
40
-0.75714285714285634
40
-0.74285714285714211
40
-0.72857142857142787
40
-0.71428571428571364
40
-0.6999999999999994
40
-0.68571428571428517
40
-0.67142857142857093
40
-0.6571428571428567
40
-0.64285714285714246
40
-0.62857142857142823
40
-0.61428571428571399
40
-0.59999999999999976
40
-0.58571428571428552
40
-0.57142857142857129
40
-0.55714285714285705
40
-0.54285714285714282
40
-0.52857142857142858
40
-0.51428571428571435
40
-0.50000000000000011
40
-0.48571428571428582
40
-0.47142857142857153
40
-0.45714285714285724
40
-0.44285714285714295
40
-0.42857142857142866
40
-0.41428571428571437
40
-0.40000000000000008
40
-0.38571428571428579
40
-0.3714285714285715
40
-0.35714285714285721
40
-0.34285714285714292
40
-0.32857142857142863
40
-0.31428571428571433
40
-0.30000000000000004
40
-0.28571428571428575
40
-0.27142857142857146
40
-0.25714285714285717
40
-0.24285714285714291
40
-0.22857142857142862
40
-0.21428571428571433
40
-0.20000000000000004
40
-0.18571428571428575
40
-0.17142857142857146
40
-0.15714285714285717
40
-0.14285714285714288
40
-0.12857142857142859
40
-0.1142857142857143
40
-0.10000000000000001
40
-0.085714285714285715
40
-0.071428571428571425
40
-0.057142857142857141
40
-0.042857142857142858
40
-0.028571428571428571
40
-0.014285714285714285
40
0
40
0
40
0
40
0
40
0
40
0
41
1
41
1
41
1
41
1
41
1
41
1
41
1
41
1
41
1
41
1
41
1
41
1
41
1
41
1
41
1
41
1
41
1
41
1
41
1
41
1
41
1
41
1
41
1
41
1
41
1
41
1
41
1
41
1
41
1
41
1
41
1
41
1
41
1
41
1
41
1
41
1
41
1
41
1
41
1
41
1
41
1
41
1
41
1
41
1
41
1
41
1
41
1
41
1
41
1
41
1
41
1
41
1
41
1
41
1
41
1
41
1
41
1
41
1
41
1
41
1
41
1
41
1
41
1
41
1
41
1
41
1
41
1
41
1
41
1
41
1
41
1
41
1
41
1
41
1
41
1
10
-11.251705219275848
20
6.5114614072818355
30
0
10
-11.248141752066491
20
6.5029043585564281
30
0
10
-11.240993381541472
20
6.4858097403652
30
0
10
-11.230206517442243
20
6.4602262508633501
30
0
10
-11.215695372559047
20
6.4262318458734562
30
0
10
-11.197341770717134
20
6.3839340377573492
30
0
10
-11.178773210331563
20
6.3418320601432061
30
0
10
-11.159989440186685
20
6.2999268870169018
30
0
10
-11.140990326159976
20
6.2582198760764207
30
0
10
-11.121775950062345
20
6.2167128289347033
30
0
10
-11.102346562307366
20
6.1754078905996579
30
0
10
-11.082702512306746
20
6.1343074240773197
30
0
10
-11.062844186478236
20
6.0934138880070403
30
0
10
-11.042771948904061
20
6.0527297220911969
30
0
10
-11.022486071754148
20
6.012257201148639
30
0
10
-11.001986735131094
20
5.9719984582089181
30
0
10
-10.981274053613019
20
5.9319555687818166
30
0
10
-10.960348096100279
20
5.8921306165144172
30
0
10
-10.939208908451372
20
5.8525257583562071
30
0
10
-10.917856540241853
20
5.8131433050071735
30
0
10
-10.896291053400354
20
5.7739857158999266
30
0
10
-10.874512518767997
20
5.7350555416706701
30
0
10
-10.852521018861109
20
5.6963553776726883
30
0
10
-10.830316647321037
20
5.6578878191822586
30
0
10
-10.807899517108286
20
5.619655394886653
30
0
10
-10.78526974334817
20
5.581660586650842
30
0
10
-10.762427406270367
20
5.5439059227398815
30
0
10
-10.739372518313953
20
5.5063940545644492
30
0
10
-10.716104997078663
20
5.4691278260298359
30
0
10
-10.692624622444843
20
5.4321103750324706
30
0
10
-10.668931057523279
20
5.3953451046093894
30
0
10
-10.64502393714436
20
5.3588355137303543
30
0
10
-10.620902947160396
20
5.3225850505050509
30
0
10
-10.596567893505235
20
5.2865969824906367
30
0
10
-10.572018815106858
20
5.2508741895012179
30
0
10
-10.547255943148951
20
5.2154192338513194
30
0
10
-10.522279467439288
20
5.1802347796578463
30
0
10
-10.497089336115923
20
5.1453239520882921
30
0
10
-10.471685078285899
20
5.1106906569890986
30
0
10
-10.446065533048706
20
5.0763400673451331
30
0
10
-10.420228922570145
20
5.0422784985375113
30
0
10
-10.394173379832312
20
5.0085124752234673
30
0
10
-10.367897405735924
20
4.9750479248578463
30
0
10
-10.341400270906199
20
4.9418894691587614
30
0
10
-10.314682651169802
20
4.9090393027831443
30
0
10
-10.287746416972809
20
4.8764975695993265
30
0
10
-10.260593356227234
20
4.8442646270453791
30
0
10
-10.233224067905496
20
4.8123430085242074
30
0
10
-10.20563699590339
20
4.7807391386515166
30
0
10
-10.177826894143733
20
4.7494660539626707
30
0
10
-10.149785435225173
20
4.718542336046017
30
0
10
-10.121504138966557
20
4.6879869458154575
30
0
10
-10.092976935554749
20
4.6578147032096009
30
0
10
-10.064202360655802
20
4.6280324193166287
30
0
10
-10.035187191099112
20
4.5986324791526876
30
0
10
-10.005944332731659
20
4.5695965974577817
30
0
10
-9.976485859602457
20
4.540908157026422
30
0
10
-9.9468168505457797
20
4.5125631344177979
30
0
10
-9.9169301187706651
20
4.484579449688443
30
0
10
-9.8867975021199221
20
4.4570123932245682
30
0
10
-9.8563765478356835
20
4.4299428555829987
30
0
10
-9.8256262845008919
20
4.4034495201691106
30
0
10
-9.7945214503701603
20
4.3775837513737885
30
0
10
-9.7630647187057544
20
4.3523480951591011
30
0
10
-9.7313065692878133
20
4.327661088337778
30
0
10
-9.6993227146963967
20
4.3033980029354826
30
0
10
-9.6671759665388848
20
4.2794593926316251
30
0
10
-9.6348816167315672
20
4.2558334202868213
30
0
10
-9.6023747990357524
20
4.2326544929039516
30
0
10
-9.5694677183292818
20
4.2102804171562926
30
0
10
-9.5359002290892594
20
4.1891992233335813
30
0
10
-9.5083053895022402
20
4.1737648980379731
30
0
10
-9.4870979924332257
20
4.1631695919760467
30
0
10
-9.4727203849526287
20
4.1565642628984358
30
0
10
-9.465471744581917
20
4.153376152146536
30
0
0
LINE
5
187
100
AcDbEntity
8
0
100
AcDbLine
10
-9.465471744581917
20
4.153376152146536
30
0
11
-8.0546725020308756
21
3.5328757542893201
31
0
0
ARC
5
188
100
AcDbEntity
8
0
100
AcDbCircle
10
-8.1553230073812681
20
3.3040319740096051
30
0
40
0.25000000000000178
210
-0
220
0
230
1
100
AcDbArc
50
-22.054744144033002
51
66.259055500822456
0
ENDSEC
0
SECTION
2
OBJECTS
0
DICTIONARY
5
C
100
AcDbDictionary
3
ACAD_GROUP
350
D
3
ACAD_MLINESTYLE
350
17
0
DICTIONARY
5
D
100
AcDbDictionary
0
DICTIONARY
5
1A
330
C
100
AcDbDictionary
0
DICTIONARY
5
17
100
AcDbDictionary
0
ENDSEC
0
EOF
